<mxfile host="Electron" modified="2024-06-16T21:52:58.284Z" agent="Mozilla/5.0 (Windows NT 10.0; Win64; x64) AppleWebKit/537.36 (KHTML, like Gecko) draw.io/24.5.3 Chrome/124.0.6367.207 Electron/30.0.6 Safari/537.36" etag="wcwTbUELfIBQd5Ml94Wr" version="24.5.3" type="device">
  <diagram name="core" id="Or8uOjH5nFjIJHmu_Dz1">
    <mxGraphModel dx="1851" dy="788" grid="1" gridSize="10" guides="1" tooltips="1" connect="1" arrows="1" fold="1" page="0" pageScale="1" pageWidth="827" pageHeight="1169" math="0" shadow="0">
      <root>
        <mxCell id="0" />
        <mxCell id="1" parent="0" />
        <mxCell id="bGasV0_nglml6GjyVDKy-18" value="core.tb_PROJECTS" style="shape=table;startSize=40;container=1;collapsible=0;childLayout=tableLayout;fillColor=#6a00ff;fontColor=#ffffff;strokeColor=#3700CC;fontStyle=1;fontSize=20;" vertex="1" parent="1">
          <mxGeometry x="360" y="240" width="400" height="360" as="geometry" />
        </mxCell>
        <mxCell id="bGasV0_nglml6GjyVDKy-19" value="" style="shape=tableRow;horizontal=0;startSize=0;swimlaneHead=0;swimlaneBody=0;strokeColor=inherit;top=0;left=0;bottom=0;right=0;collapsible=0;dropTarget=0;fillColor=none;points=[[0,0.5],[1,0.5]];portConstraint=eastwest;" vertex="1" parent="bGasV0_nglml6GjyVDKy-18">
          <mxGeometry y="40" width="400" height="40" as="geometry" />
        </mxCell>
        <mxCell id="bGasV0_nglml6GjyVDKy-20" value="PK" style="shape=partialRectangle;html=1;whiteSpace=wrap;connectable=0;strokeColor=inherit;overflow=hidden;fillColor=none;top=0;left=0;bottom=0;right=0;pointerEvents=1;align=center;fontStyle=1" vertex="1" parent="bGasV0_nglml6GjyVDKy-19">
          <mxGeometry width="40" height="40" as="geometry">
            <mxRectangle width="40" height="40" as="alternateBounds" />
          </mxGeometry>
        </mxCell>
        <mxCell id="bGasV0_nglml6GjyVDKy-21" value="Id" style="shape=partialRectangle;html=1;whiteSpace=wrap;connectable=0;strokeColor=inherit;overflow=hidden;fillColor=none;top=0;left=0;bottom=0;right=0;pointerEvents=1;align=left;spacingLeft=5;fontStyle=1" vertex="1" parent="bGasV0_nglml6GjyVDKy-19">
          <mxGeometry x="40" width="240" height="40" as="geometry">
            <mxRectangle width="240" height="40" as="alternateBounds" />
          </mxGeometry>
        </mxCell>
        <mxCell id="bGasV0_nglml6GjyVDKy-22" value="GUID" style="shape=partialRectangle;html=1;whiteSpace=wrap;connectable=0;strokeColor=inherit;overflow=hidden;fillColor=none;top=0;left=0;bottom=0;right=0;pointerEvents=1;spacingLeft=5;align=left;fontColor=#0033ff;fontStyle=1" vertex="1" parent="bGasV0_nglml6GjyVDKy-19">
          <mxGeometry x="280" width="120" height="40" as="geometry">
            <mxRectangle width="120" height="40" as="alternateBounds" />
          </mxGeometry>
        </mxCell>
        <mxCell id="bGasV0_nglml6GjyVDKy-39" value="" style="shape=tableRow;horizontal=0;startSize=0;swimlaneHead=0;swimlaneBody=0;strokeColor=inherit;top=0;left=0;bottom=0;right=0;collapsible=0;dropTarget=0;fillColor=none;points=[[0,0.5],[1,0.5]];portConstraint=eastwest;" vertex="1" parent="bGasV0_nglml6GjyVDKy-18">
          <mxGeometry y="80" width="400" height="40" as="geometry" />
        </mxCell>
        <mxCell id="bGasV0_nglml6GjyVDKy-40" value="" style="shape=partialRectangle;html=1;whiteSpace=wrap;connectable=0;strokeColor=inherit;overflow=hidden;fillColor=none;top=0;left=0;bottom=0;right=0;pointerEvents=1;align=center;fontStyle=1" vertex="1" parent="bGasV0_nglml6GjyVDKy-39">
          <mxGeometry width="40" height="40" as="geometry">
            <mxRectangle width="40" height="40" as="alternateBounds" />
          </mxGeometry>
        </mxCell>
        <mxCell id="bGasV0_nglml6GjyVDKy-41" value="Name" style="shape=partialRectangle;html=1;whiteSpace=wrap;connectable=0;strokeColor=inherit;overflow=hidden;fillColor=none;top=0;left=0;bottom=0;right=0;pointerEvents=1;align=left;spacingLeft=5;fontStyle=1" vertex="1" parent="bGasV0_nglml6GjyVDKy-39">
          <mxGeometry x="40" width="240" height="40" as="geometry">
            <mxRectangle width="240" height="40" as="alternateBounds" />
          </mxGeometry>
        </mxCell>
        <mxCell id="bGasV0_nglml6GjyVDKy-42" value="NVARCHAR(30)" style="shape=partialRectangle;html=1;whiteSpace=wrap;connectable=0;strokeColor=inherit;overflow=hidden;fillColor=none;top=0;left=0;bottom=0;right=0;pointerEvents=1;spacingLeft=5;align=left;fontColor=#0033ff;fontStyle=1" vertex="1" parent="bGasV0_nglml6GjyVDKy-39">
          <mxGeometry x="280" width="120" height="40" as="geometry">
            <mxRectangle width="120" height="40" as="alternateBounds" />
          </mxGeometry>
        </mxCell>
        <mxCell id="bGasV0_nglml6GjyVDKy-43" value="" style="shape=tableRow;horizontal=0;startSize=0;swimlaneHead=0;swimlaneBody=0;strokeColor=inherit;top=0;left=0;bottom=0;right=0;collapsible=0;dropTarget=0;fillColor=none;points=[[0,0.5],[1,0.5]];portConstraint=eastwest;" vertex="1" parent="bGasV0_nglml6GjyVDKy-18">
          <mxGeometry y="120" width="400" height="40" as="geometry" />
        </mxCell>
        <mxCell id="bGasV0_nglml6GjyVDKy-44" value="" style="shape=partialRectangle;html=1;whiteSpace=wrap;connectable=0;strokeColor=inherit;overflow=hidden;fillColor=none;top=0;left=0;bottom=0;right=0;pointerEvents=1;align=center;fontStyle=1" vertex="1" parent="bGasV0_nglml6GjyVDKy-43">
          <mxGeometry width="40" height="40" as="geometry">
            <mxRectangle width="40" height="40" as="alternateBounds" />
          </mxGeometry>
        </mxCell>
        <mxCell id="bGasV0_nglml6GjyVDKy-45" value="Description" style="shape=partialRectangle;html=1;whiteSpace=wrap;connectable=0;strokeColor=inherit;overflow=hidden;fillColor=none;top=0;left=0;bottom=0;right=0;pointerEvents=1;align=left;spacingLeft=5;fontStyle=1" vertex="1" parent="bGasV0_nglml6GjyVDKy-43">
          <mxGeometry x="40" width="240" height="40" as="geometry">
            <mxRectangle width="240" height="40" as="alternateBounds" />
          </mxGeometry>
        </mxCell>
        <mxCell id="bGasV0_nglml6GjyVDKy-46" value="NVARCHAR(250)" style="shape=partialRectangle;html=1;whiteSpace=wrap;connectable=0;strokeColor=inherit;overflow=hidden;fillColor=none;top=0;left=0;bottom=0;right=0;pointerEvents=1;spacingLeft=5;align=left;fontColor=#0033ff;fontStyle=1" vertex="1" parent="bGasV0_nglml6GjyVDKy-43">
          <mxGeometry x="280" width="120" height="40" as="geometry">
            <mxRectangle width="120" height="40" as="alternateBounds" />
          </mxGeometry>
        </mxCell>
        <mxCell id="bGasV0_nglml6GjyVDKy-47" value="" style="shape=tableRow;horizontal=0;startSize=0;swimlaneHead=0;swimlaneBody=0;strokeColor=inherit;top=0;left=0;bottom=0;right=0;collapsible=0;dropTarget=0;fillColor=none;points=[[0,0.5],[1,0.5]];portConstraint=eastwest;" vertex="1" parent="bGasV0_nglml6GjyVDKy-18">
          <mxGeometry y="160" width="400" height="40" as="geometry" />
        </mxCell>
        <mxCell id="bGasV0_nglml6GjyVDKy-48" value="" style="shape=partialRectangle;html=1;whiteSpace=wrap;connectable=0;strokeColor=inherit;overflow=hidden;fillColor=none;top=0;left=0;bottom=0;right=0;pointerEvents=1;align=center;fontStyle=1" vertex="1" parent="bGasV0_nglml6GjyVDKy-47">
          <mxGeometry width="40" height="40" as="geometry">
            <mxRectangle width="40" height="40" as="alternateBounds" />
          </mxGeometry>
        </mxCell>
        <mxCell id="bGasV0_nglml6GjyVDKy-49" value="CreatedAt" style="shape=partialRectangle;html=1;whiteSpace=wrap;connectable=0;strokeColor=inherit;overflow=hidden;fillColor=none;top=0;left=0;bottom=0;right=0;pointerEvents=1;align=left;spacingLeft=5;fontStyle=1" vertex="1" parent="bGasV0_nglml6GjyVDKy-47">
          <mxGeometry x="40" width="240" height="40" as="geometry">
            <mxRectangle width="240" height="40" as="alternateBounds" />
          </mxGeometry>
        </mxCell>
        <mxCell id="bGasV0_nglml6GjyVDKy-50" value="DATETIME" style="shape=partialRectangle;html=1;whiteSpace=wrap;connectable=0;strokeColor=inherit;overflow=hidden;fillColor=none;top=0;left=0;bottom=0;right=0;pointerEvents=1;spacingLeft=5;align=left;fontColor=#0033ff;fontStyle=1" vertex="1" parent="bGasV0_nglml6GjyVDKy-47">
          <mxGeometry x="280" width="120" height="40" as="geometry">
            <mxRectangle width="120" height="40" as="alternateBounds" />
          </mxGeometry>
        </mxCell>
        <mxCell id="bGasV0_nglml6GjyVDKy-51" value="" style="shape=tableRow;horizontal=0;startSize=0;swimlaneHead=0;swimlaneBody=0;strokeColor=inherit;top=0;left=0;bottom=0;right=0;collapsible=0;dropTarget=0;fillColor=none;points=[[0,0.5],[1,0.5]];portConstraint=eastwest;" vertex="1" parent="bGasV0_nglml6GjyVDKy-18">
          <mxGeometry y="200" width="400" height="40" as="geometry" />
        </mxCell>
        <mxCell id="bGasV0_nglml6GjyVDKy-52" value="FK" style="shape=partialRectangle;html=1;whiteSpace=wrap;connectable=0;strokeColor=inherit;overflow=hidden;fillColor=none;top=0;left=0;bottom=0;right=0;pointerEvents=1;align=center;fontStyle=1" vertex="1" parent="bGasV0_nglml6GjyVDKy-51">
          <mxGeometry width="40" height="40" as="geometry">
            <mxRectangle width="40" height="40" as="alternateBounds" />
          </mxGeometry>
        </mxCell>
        <mxCell id="bGasV0_nglml6GjyVDKy-53" value="CreatedBy" style="shape=partialRectangle;html=1;whiteSpace=wrap;connectable=0;strokeColor=inherit;overflow=hidden;fillColor=none;top=0;left=0;bottom=0;right=0;pointerEvents=1;align=left;spacingLeft=5;fontStyle=1" vertex="1" parent="bGasV0_nglml6GjyVDKy-51">
          <mxGeometry x="40" width="240" height="40" as="geometry">
            <mxRectangle width="240" height="40" as="alternateBounds" />
          </mxGeometry>
        </mxCell>
        <mxCell id="bGasV0_nglml6GjyVDKy-54" value="GUID" style="shape=partialRectangle;html=1;whiteSpace=wrap;connectable=0;strokeColor=inherit;overflow=hidden;fillColor=none;top=0;left=0;bottom=0;right=0;pointerEvents=1;spacingLeft=5;align=left;fontColor=#0033ff;fontStyle=1" vertex="1" parent="bGasV0_nglml6GjyVDKy-51">
          <mxGeometry x="280" width="120" height="40" as="geometry">
            <mxRectangle width="120" height="40" as="alternateBounds" />
          </mxGeometry>
        </mxCell>
        <mxCell id="bGasV0_nglml6GjyVDKy-76" value="" style="shape=tableRow;horizontal=0;startSize=0;swimlaneHead=0;swimlaneBody=0;strokeColor=inherit;top=0;left=0;bottom=0;right=0;collapsible=0;dropTarget=0;fillColor=none;points=[[0,0.5],[1,0.5]];portConstraint=eastwest;" vertex="1" parent="bGasV0_nglml6GjyVDKy-18">
          <mxGeometry y="240" width="400" height="40" as="geometry" />
        </mxCell>
        <mxCell id="bGasV0_nglml6GjyVDKy-77" value="" style="shape=partialRectangle;html=1;whiteSpace=wrap;connectable=0;strokeColor=inherit;overflow=hidden;fillColor=none;top=0;left=0;bottom=0;right=0;pointerEvents=1;align=center;fontStyle=1" vertex="1" parent="bGasV0_nglml6GjyVDKy-76">
          <mxGeometry width="40" height="40" as="geometry">
            <mxRectangle width="40" height="40" as="alternateBounds" />
          </mxGeometry>
        </mxCell>
        <mxCell id="bGasV0_nglml6GjyVDKy-78" value="UpdatedAt" style="shape=partialRectangle;html=1;whiteSpace=wrap;connectable=0;strokeColor=inherit;overflow=hidden;fillColor=none;top=0;left=0;bottom=0;right=0;pointerEvents=1;align=left;spacingLeft=5;fontStyle=1" vertex="1" parent="bGasV0_nglml6GjyVDKy-76">
          <mxGeometry x="40" width="240" height="40" as="geometry">
            <mxRectangle width="240" height="40" as="alternateBounds" />
          </mxGeometry>
        </mxCell>
        <mxCell id="bGasV0_nglml6GjyVDKy-79" value="DATETIME" style="shape=partialRectangle;html=1;whiteSpace=wrap;connectable=0;strokeColor=inherit;overflow=hidden;fillColor=none;top=0;left=0;bottom=0;right=0;pointerEvents=1;spacingLeft=5;align=left;fontColor=#0033ff;fontStyle=1" vertex="1" parent="bGasV0_nglml6GjyVDKy-76">
          <mxGeometry x="280" width="120" height="40" as="geometry">
            <mxRectangle width="120" height="40" as="alternateBounds" />
          </mxGeometry>
        </mxCell>
        <mxCell id="bGasV0_nglml6GjyVDKy-80" value="" style="shape=tableRow;horizontal=0;startSize=0;swimlaneHead=0;swimlaneBody=0;strokeColor=inherit;top=0;left=0;bottom=0;right=0;collapsible=0;dropTarget=0;fillColor=none;points=[[0,0.5],[1,0.5]];portConstraint=eastwest;" vertex="1" parent="bGasV0_nglml6GjyVDKy-18">
          <mxGeometry y="280" width="400" height="40" as="geometry" />
        </mxCell>
        <mxCell id="bGasV0_nglml6GjyVDKy-81" value="FK" style="shape=partialRectangle;html=1;whiteSpace=wrap;connectable=0;strokeColor=inherit;overflow=hidden;fillColor=none;top=0;left=0;bottom=0;right=0;pointerEvents=1;align=center;fontStyle=1" vertex="1" parent="bGasV0_nglml6GjyVDKy-80">
          <mxGeometry width="40" height="40" as="geometry">
            <mxRectangle width="40" height="40" as="alternateBounds" />
          </mxGeometry>
        </mxCell>
        <mxCell id="bGasV0_nglml6GjyVDKy-82" value="UpdatedBy" style="shape=partialRectangle;html=1;whiteSpace=wrap;connectable=0;strokeColor=inherit;overflow=hidden;fillColor=none;top=0;left=0;bottom=0;right=0;pointerEvents=1;align=left;spacingLeft=5;fontStyle=1" vertex="1" parent="bGasV0_nglml6GjyVDKy-80">
          <mxGeometry x="40" width="240" height="40" as="geometry">
            <mxRectangle width="240" height="40" as="alternateBounds" />
          </mxGeometry>
        </mxCell>
        <mxCell id="bGasV0_nglml6GjyVDKy-83" value="GUID" style="shape=partialRectangle;html=1;whiteSpace=wrap;connectable=0;strokeColor=inherit;overflow=hidden;fillColor=none;top=0;left=0;bottom=0;right=0;pointerEvents=1;spacingLeft=5;align=left;fontColor=#0033ff;fontStyle=1" vertex="1" parent="bGasV0_nglml6GjyVDKy-80">
          <mxGeometry x="280" width="120" height="40" as="geometry">
            <mxRectangle width="120" height="40" as="alternateBounds" />
          </mxGeometry>
        </mxCell>
        <mxCell id="bGasV0_nglml6GjyVDKy-84" value="" style="shape=tableRow;horizontal=0;startSize=0;swimlaneHead=0;swimlaneBody=0;strokeColor=inherit;top=0;left=0;bottom=0;right=0;collapsible=0;dropTarget=0;fillColor=none;points=[[0,0.5],[1,0.5]];portConstraint=eastwest;" vertex="1" parent="bGasV0_nglml6GjyVDKy-18">
          <mxGeometry y="320" width="400" height="40" as="geometry" />
        </mxCell>
        <mxCell id="bGasV0_nglml6GjyVDKy-85" value="FK" style="shape=partialRectangle;html=1;whiteSpace=wrap;connectable=0;strokeColor=inherit;overflow=hidden;fillColor=none;top=0;left=0;bottom=0;right=0;pointerEvents=1;align=center;fontStyle=1" vertex="1" parent="bGasV0_nglml6GjyVDKy-84">
          <mxGeometry width="40" height="40" as="geometry">
            <mxRectangle width="40" height="40" as="alternateBounds" />
          </mxGeometry>
        </mxCell>
        <mxCell id="bGasV0_nglml6GjyVDKy-86" value="StatusId" style="shape=partialRectangle;html=1;whiteSpace=wrap;connectable=0;strokeColor=inherit;overflow=hidden;fillColor=none;top=0;left=0;bottom=0;right=0;pointerEvents=1;align=left;spacingLeft=5;fontStyle=1" vertex="1" parent="bGasV0_nglml6GjyVDKy-84">
          <mxGeometry x="40" width="240" height="40" as="geometry">
            <mxRectangle width="240" height="40" as="alternateBounds" />
          </mxGeometry>
        </mxCell>
        <mxCell id="bGasV0_nglml6GjyVDKy-87" value="GUID" style="shape=partialRectangle;html=1;whiteSpace=wrap;connectable=0;strokeColor=inherit;overflow=hidden;fillColor=none;top=0;left=0;bottom=0;right=0;pointerEvents=1;spacingLeft=5;align=left;fontColor=#0033ff;fontStyle=1" vertex="1" parent="bGasV0_nglml6GjyVDKy-84">
          <mxGeometry x="280" width="120" height="40" as="geometry">
            <mxRectangle width="120" height="40" as="alternateBounds" />
          </mxGeometry>
        </mxCell>
        <mxCell id="bGasV0_nglml6GjyVDKy-88" value="core.tb_STATUS" style="shape=table;startSize=40;container=1;collapsible=0;childLayout=tableLayout;fillColor=#67AB9F;fontColor=#ffffff;strokeColor=#67AB9F;fontStyle=1;fontSize=20;" vertex="1" parent="1">
          <mxGeometry x="880" y="920" width="400" height="120" as="geometry" />
        </mxCell>
        <mxCell id="bGasV0_nglml6GjyVDKy-89" value="" style="shape=tableRow;horizontal=0;startSize=0;swimlaneHead=0;swimlaneBody=0;strokeColor=inherit;top=0;left=0;bottom=0;right=0;collapsible=0;dropTarget=0;fillColor=none;points=[[0,0.5],[1,0.5]];portConstraint=eastwest;" vertex="1" parent="bGasV0_nglml6GjyVDKy-88">
          <mxGeometry y="40" width="400" height="40" as="geometry" />
        </mxCell>
        <mxCell id="bGasV0_nglml6GjyVDKy-90" value="PK" style="shape=partialRectangle;html=1;whiteSpace=wrap;connectable=0;strokeColor=inherit;overflow=hidden;fillColor=none;top=0;left=0;bottom=0;right=0;pointerEvents=1;align=center;fontStyle=1" vertex="1" parent="bGasV0_nglml6GjyVDKy-89">
          <mxGeometry width="50" height="40" as="geometry">
            <mxRectangle width="50" height="40" as="alternateBounds" />
          </mxGeometry>
        </mxCell>
        <mxCell id="bGasV0_nglml6GjyVDKy-91" value="Id" style="shape=partialRectangle;html=1;whiteSpace=wrap;connectable=0;strokeColor=inherit;overflow=hidden;fillColor=none;top=0;left=0;bottom=0;right=0;pointerEvents=1;align=left;spacingLeft=5;fontStyle=1" vertex="1" parent="bGasV0_nglml6GjyVDKy-89">
          <mxGeometry x="50" width="217" height="40" as="geometry">
            <mxRectangle width="217" height="40" as="alternateBounds" />
          </mxGeometry>
        </mxCell>
        <mxCell id="bGasV0_nglml6GjyVDKy-92" value="GUID" style="shape=partialRectangle;html=1;whiteSpace=wrap;connectable=0;strokeColor=inherit;overflow=hidden;fillColor=none;top=0;left=0;bottom=0;right=0;pointerEvents=1;spacingLeft=5;align=left;fontColor=#0033ff;fontStyle=1" vertex="1" parent="bGasV0_nglml6GjyVDKy-89">
          <mxGeometry x="267" width="133" height="40" as="geometry">
            <mxRectangle width="133" height="40" as="alternateBounds" />
          </mxGeometry>
        </mxCell>
        <mxCell id="bGasV0_nglml6GjyVDKy-93" value="" style="shape=tableRow;horizontal=0;startSize=0;swimlaneHead=0;swimlaneBody=0;strokeColor=inherit;top=0;left=0;bottom=0;right=0;collapsible=0;dropTarget=0;fillColor=none;points=[[0,0.5],[1,0.5]];portConstraint=eastwest;" vertex="1" parent="bGasV0_nglml6GjyVDKy-88">
          <mxGeometry y="80" width="400" height="40" as="geometry" />
        </mxCell>
        <mxCell id="bGasV0_nglml6GjyVDKy-94" value="" style="shape=partialRectangle;html=1;whiteSpace=wrap;connectable=0;strokeColor=inherit;overflow=hidden;fillColor=none;top=0;left=0;bottom=0;right=0;pointerEvents=1;align=center;fontStyle=1" vertex="1" parent="bGasV0_nglml6GjyVDKy-93">
          <mxGeometry width="50" height="40" as="geometry">
            <mxRectangle width="50" height="40" as="alternateBounds" />
          </mxGeometry>
        </mxCell>
        <mxCell id="bGasV0_nglml6GjyVDKy-95" value="Name" style="shape=partialRectangle;html=1;whiteSpace=wrap;connectable=0;strokeColor=inherit;overflow=hidden;fillColor=none;top=0;left=0;bottom=0;right=0;pointerEvents=1;align=left;spacingLeft=5;fontStyle=1" vertex="1" parent="bGasV0_nglml6GjyVDKy-93">
          <mxGeometry x="50" width="217" height="40" as="geometry">
            <mxRectangle width="217" height="40" as="alternateBounds" />
          </mxGeometry>
        </mxCell>
        <mxCell id="bGasV0_nglml6GjyVDKy-96" value="NVARCHAR(20)" style="shape=partialRectangle;html=1;whiteSpace=wrap;connectable=0;strokeColor=inherit;overflow=hidden;fillColor=none;top=0;left=0;bottom=0;right=0;pointerEvents=1;spacingLeft=5;align=left;fontColor=#0033ff;fontStyle=1" vertex="1" parent="bGasV0_nglml6GjyVDKy-93">
          <mxGeometry x="267" width="133" height="40" as="geometry">
            <mxRectangle width="133" height="40" as="alternateBounds" />
          </mxGeometry>
        </mxCell>
        <mxCell id="bGasV0_nglml6GjyVDKy-121" value="core.tb_USERS" style="shape=table;startSize=40;container=1;collapsible=0;childLayout=tableLayout;fillColor=#336600;fontColor=#ffffff;strokeColor=#336600;fontSize=20;fontStyle=1" vertex="1" parent="1">
          <mxGeometry x="-200" y="640" width="400" height="240" as="geometry" />
        </mxCell>
        <mxCell id="bGasV0_nglml6GjyVDKy-122" value="" style="shape=tableRow;horizontal=0;startSize=0;swimlaneHead=0;swimlaneBody=0;strokeColor=inherit;top=0;left=0;bottom=0;right=0;collapsible=0;dropTarget=0;fillColor=none;points=[[0,0.5],[1,0.5]];portConstraint=eastwest;" vertex="1" parent="bGasV0_nglml6GjyVDKy-121">
          <mxGeometry y="40" width="400" height="40" as="geometry" />
        </mxCell>
        <mxCell id="bGasV0_nglml6GjyVDKy-123" value="PK" style="shape=partialRectangle;html=1;whiteSpace=wrap;connectable=0;strokeColor=inherit;overflow=hidden;fillColor=none;top=0;left=0;bottom=0;right=0;pointerEvents=1;align=center;fontStyle=1" vertex="1" parent="bGasV0_nglml6GjyVDKy-122">
          <mxGeometry width="40" height="40" as="geometry">
            <mxRectangle width="40" height="40" as="alternateBounds" />
          </mxGeometry>
        </mxCell>
        <mxCell id="bGasV0_nglml6GjyVDKy-124" value="Id" style="shape=partialRectangle;html=1;whiteSpace=wrap;connectable=0;strokeColor=inherit;overflow=hidden;fillColor=none;top=0;left=0;bottom=0;right=0;pointerEvents=1;align=left;spacingLeft=5;fontStyle=1" vertex="1" parent="bGasV0_nglml6GjyVDKy-122">
          <mxGeometry x="40" width="240" height="40" as="geometry">
            <mxRectangle width="240" height="40" as="alternateBounds" />
          </mxGeometry>
        </mxCell>
        <mxCell id="bGasV0_nglml6GjyVDKy-125" value="GUID" style="shape=partialRectangle;html=1;whiteSpace=wrap;connectable=0;strokeColor=inherit;overflow=hidden;fillColor=none;top=0;left=0;bottom=0;right=0;pointerEvents=1;spacingLeft=5;align=left;fontColor=#0033ff;fontStyle=1" vertex="1" parent="bGasV0_nglml6GjyVDKy-122">
          <mxGeometry x="280" width="120" height="40" as="geometry">
            <mxRectangle width="120" height="40" as="alternateBounds" />
          </mxGeometry>
        </mxCell>
        <mxCell id="bGasV0_nglml6GjyVDKy-126" value="" style="shape=tableRow;horizontal=0;startSize=0;swimlaneHead=0;swimlaneBody=0;strokeColor=inherit;top=0;left=0;bottom=0;right=0;collapsible=0;dropTarget=0;fillColor=none;points=[[0,0.5],[1,0.5]];portConstraint=eastwest;" vertex="1" parent="bGasV0_nglml6GjyVDKy-121">
          <mxGeometry y="80" width="400" height="40" as="geometry" />
        </mxCell>
        <mxCell id="bGasV0_nglml6GjyVDKy-127" value="" style="shape=partialRectangle;html=1;whiteSpace=wrap;connectable=0;strokeColor=inherit;overflow=hidden;fillColor=none;top=0;left=0;bottom=0;right=0;pointerEvents=1;align=center;fontStyle=1" vertex="1" parent="bGasV0_nglml6GjyVDKy-126">
          <mxGeometry width="40" height="40" as="geometry">
            <mxRectangle width="40" height="40" as="alternateBounds" />
          </mxGeometry>
        </mxCell>
        <mxCell id="bGasV0_nglml6GjyVDKy-128" value="Name" style="shape=partialRectangle;html=1;whiteSpace=wrap;connectable=0;strokeColor=inherit;overflow=hidden;fillColor=none;top=0;left=0;bottom=0;right=0;pointerEvents=1;align=left;spacingLeft=5;fontStyle=1" vertex="1" parent="bGasV0_nglml6GjyVDKy-126">
          <mxGeometry x="40" width="240" height="40" as="geometry">
            <mxRectangle width="240" height="40" as="alternateBounds" />
          </mxGeometry>
        </mxCell>
        <mxCell id="bGasV0_nglml6GjyVDKy-129" value="NVARCHAR(100)" style="shape=partialRectangle;html=1;whiteSpace=wrap;connectable=0;strokeColor=inherit;overflow=hidden;fillColor=none;top=0;left=0;bottom=0;right=0;pointerEvents=1;spacingLeft=5;align=left;fontColor=#0033ff;fontStyle=1" vertex="1" parent="bGasV0_nglml6GjyVDKy-126">
          <mxGeometry x="280" width="120" height="40" as="geometry">
            <mxRectangle width="120" height="40" as="alternateBounds" />
          </mxGeometry>
        </mxCell>
        <mxCell id="bGasV0_nglml6GjyVDKy-130" value="" style="shape=tableRow;horizontal=0;startSize=0;swimlaneHead=0;swimlaneBody=0;strokeColor=inherit;top=0;left=0;bottom=0;right=0;collapsible=0;dropTarget=0;fillColor=none;points=[[0,0.5],[1,0.5]];portConstraint=eastwest;" vertex="1" parent="bGasV0_nglml6GjyVDKy-121">
          <mxGeometry y="120" width="400" height="40" as="geometry" />
        </mxCell>
        <mxCell id="bGasV0_nglml6GjyVDKy-131" value="" style="shape=partialRectangle;html=1;whiteSpace=wrap;connectable=0;strokeColor=inherit;overflow=hidden;fillColor=none;top=0;left=0;bottom=0;right=0;pointerEvents=1;align=center;fontStyle=1" vertex="1" parent="bGasV0_nglml6GjyVDKy-130">
          <mxGeometry width="40" height="40" as="geometry">
            <mxRectangle width="40" height="40" as="alternateBounds" />
          </mxGeometry>
        </mxCell>
        <mxCell id="bGasV0_nglml6GjyVDKy-132" value="Email" style="shape=partialRectangle;html=1;whiteSpace=wrap;connectable=0;strokeColor=inherit;overflow=hidden;fillColor=none;top=0;left=0;bottom=0;right=0;pointerEvents=1;align=left;spacingLeft=5;fontStyle=1" vertex="1" parent="bGasV0_nglml6GjyVDKy-130">
          <mxGeometry x="40" width="240" height="40" as="geometry">
            <mxRectangle width="240" height="40" as="alternateBounds" />
          </mxGeometry>
        </mxCell>
        <mxCell id="bGasV0_nglml6GjyVDKy-133" value="NVARCHAR(200)" style="shape=partialRectangle;html=1;whiteSpace=wrap;connectable=0;strokeColor=inherit;overflow=hidden;fillColor=none;top=0;left=0;bottom=0;right=0;pointerEvents=1;spacingLeft=5;align=left;fontColor=#0033ff;fontStyle=1" vertex="1" parent="bGasV0_nglml6GjyVDKy-130">
          <mxGeometry x="280" width="120" height="40" as="geometry">
            <mxRectangle width="120" height="40" as="alternateBounds" />
          </mxGeometry>
        </mxCell>
        <mxCell id="bGasV0_nglml6GjyVDKy-134" value="" style="shape=tableRow;horizontal=0;startSize=0;swimlaneHead=0;swimlaneBody=0;strokeColor=inherit;top=0;left=0;bottom=0;right=0;collapsible=0;dropTarget=0;fillColor=none;points=[[0,0.5],[1,0.5]];portConstraint=eastwest;" vertex="1" parent="bGasV0_nglml6GjyVDKy-121">
          <mxGeometry y="160" width="400" height="40" as="geometry" />
        </mxCell>
        <mxCell id="bGasV0_nglml6GjyVDKy-135" value="" style="shape=partialRectangle;html=1;whiteSpace=wrap;connectable=0;strokeColor=inherit;overflow=hidden;fillColor=none;top=0;left=0;bottom=0;right=0;pointerEvents=1;align=center;fontStyle=1" vertex="1" parent="bGasV0_nglml6GjyVDKy-134">
          <mxGeometry width="40" height="40" as="geometry">
            <mxRectangle width="40" height="40" as="alternateBounds" />
          </mxGeometry>
        </mxCell>
        <mxCell id="bGasV0_nglml6GjyVDKy-136" value="Salt" style="shape=partialRectangle;html=1;whiteSpace=wrap;connectable=0;strokeColor=inherit;overflow=hidden;fillColor=none;top=0;left=0;bottom=0;right=0;pointerEvents=1;align=left;spacingLeft=5;fontStyle=1" vertex="1" parent="bGasV0_nglml6GjyVDKy-134">
          <mxGeometry x="40" width="240" height="40" as="geometry">
            <mxRectangle width="240" height="40" as="alternateBounds" />
          </mxGeometry>
        </mxCell>
        <mxCell id="bGasV0_nglml6GjyVDKy-137" value="int" style="shape=partialRectangle;html=1;whiteSpace=wrap;connectable=0;strokeColor=inherit;overflow=hidden;fillColor=none;top=0;left=0;bottom=0;right=0;pointerEvents=1;spacingLeft=5;align=left;fontColor=#0033ff;fontStyle=1" vertex="1" parent="bGasV0_nglml6GjyVDKy-134">
          <mxGeometry x="280" width="120" height="40" as="geometry">
            <mxRectangle width="120" height="40" as="alternateBounds" />
          </mxGeometry>
        </mxCell>
        <mxCell id="bGasV0_nglml6GjyVDKy-138" value="" style="shape=tableRow;horizontal=0;startSize=0;swimlaneHead=0;swimlaneBody=0;strokeColor=inherit;top=0;left=0;bottom=0;right=0;collapsible=0;dropTarget=0;fillColor=none;points=[[0,0.5],[1,0.5]];portConstraint=eastwest;" vertex="1" parent="bGasV0_nglml6GjyVDKy-121">
          <mxGeometry y="200" width="400" height="40" as="geometry" />
        </mxCell>
        <mxCell id="bGasV0_nglml6GjyVDKy-139" value="" style="shape=partialRectangle;html=1;whiteSpace=wrap;connectable=0;strokeColor=inherit;overflow=hidden;fillColor=none;top=0;left=0;bottom=0;right=0;pointerEvents=1;align=center;fontStyle=1" vertex="1" parent="bGasV0_nglml6GjyVDKy-138">
          <mxGeometry width="40" height="40" as="geometry">
            <mxRectangle width="40" height="40" as="alternateBounds" />
          </mxGeometry>
        </mxCell>
        <mxCell id="bGasV0_nglml6GjyVDKy-140" value="Password" style="shape=partialRectangle;html=1;whiteSpace=wrap;connectable=0;strokeColor=inherit;overflow=hidden;fillColor=none;top=0;left=0;bottom=0;right=0;pointerEvents=1;align=left;spacingLeft=5;fontStyle=1" vertex="1" parent="bGasV0_nglml6GjyVDKy-138">
          <mxGeometry x="40" width="240" height="40" as="geometry">
            <mxRectangle width="240" height="40" as="alternateBounds" />
          </mxGeometry>
        </mxCell>
        <mxCell id="bGasV0_nglml6GjyVDKy-141" value="NVARCHAR(200)" style="shape=partialRectangle;html=1;whiteSpace=wrap;connectable=0;strokeColor=inherit;overflow=hidden;fillColor=none;top=0;left=0;bottom=0;right=0;pointerEvents=1;spacingLeft=5;align=left;fontColor=#0033ff;fontStyle=1" vertex="1" parent="bGasV0_nglml6GjyVDKy-138">
          <mxGeometry x="280" width="120" height="40" as="geometry">
            <mxRectangle width="120" height="40" as="alternateBounds" />
          </mxGeometry>
        </mxCell>
        <mxCell id="bGasV0_nglml6GjyVDKy-142" value="" style="edgeStyle=entityRelationEdgeStyle;fontSize=12;html=1;endArrow=ERmandOne;startArrow=ERmandOne;rounded=0;strokeColor=#336600;strokeWidth=3;entryX=0;entryY=0.5;entryDx=0;entryDy=0;" edge="1" parent="1" source="bGasV0_nglml6GjyVDKy-122" target="bGasV0_nglml6GjyVDKy-51">
          <mxGeometry width="100" height="100" relative="1" as="geometry">
            <mxPoint x="290" y="760" as="sourcePoint" />
            <mxPoint x="390" y="660" as="targetPoint" />
          </mxGeometry>
        </mxCell>
        <mxCell id="bGasV0_nglml6GjyVDKy-143" value="" style="edgeStyle=entityRelationEdgeStyle;fontSize=12;html=1;endArrow=ERmandOne;startArrow=ERmandOne;rounded=0;strokeColor=#336600;strokeWidth=3;" edge="1" parent="1" source="bGasV0_nglml6GjyVDKy-122" target="bGasV0_nglml6GjyVDKy-80">
          <mxGeometry width="100" height="100" relative="1" as="geometry">
            <mxPoint x="210" y="550" as="sourcePoint" />
            <mxPoint x="370" y="470" as="targetPoint" />
          </mxGeometry>
        </mxCell>
        <mxCell id="bGasV0_nglml6GjyVDKy-144" value="" style="edgeStyle=entityRelationEdgeStyle;fontSize=12;html=1;endArrow=ERmandOne;startArrow=ERmandOne;rounded=0;strokeColor=#67AB9F;strokeWidth=3;" edge="1" parent="1" source="bGasV0_nglml6GjyVDKy-84" target="bGasV0_nglml6GjyVDKy-89">
          <mxGeometry width="100" height="100" relative="1" as="geometry">
            <mxPoint x="180" y="840" as="sourcePoint" />
            <mxPoint x="340" y="840" as="targetPoint" />
          </mxGeometry>
        </mxCell>
        <mxCell id="bGasV0_nglml6GjyVDKy-145" value="core.tb_PROJECTS_MEMBERS" style="shape=table;startSize=40;container=1;collapsible=0;childLayout=tableLayout;fillColor=#330066;fontColor=#ffffff;strokeColor=#330066;fontStyle=1;fontSize=20;" vertex="1" parent="1">
          <mxGeometry x="-830" y="280" width="400" height="520" as="geometry" />
        </mxCell>
        <mxCell id="bGasV0_nglml6GjyVDKy-146" value="" style="shape=tableRow;horizontal=0;startSize=0;swimlaneHead=0;swimlaneBody=0;strokeColor=inherit;top=0;left=0;bottom=0;right=0;collapsible=0;dropTarget=0;fillColor=none;points=[[0,0.5],[1,0.5]];portConstraint=eastwest;" vertex="1" parent="bGasV0_nglml6GjyVDKy-145">
          <mxGeometry y="40" width="400" height="40" as="geometry" />
        </mxCell>
        <mxCell id="bGasV0_nglml6GjyVDKy-147" value="PK" style="shape=partialRectangle;html=1;whiteSpace=wrap;connectable=0;strokeColor=inherit;overflow=hidden;fillColor=none;top=0;left=0;bottom=0;right=0;pointerEvents=1;align=center;fontStyle=1" vertex="1" parent="bGasV0_nglml6GjyVDKy-146">
          <mxGeometry width="40" height="40" as="geometry">
            <mxRectangle width="40" height="40" as="alternateBounds" />
          </mxGeometry>
        </mxCell>
        <mxCell id="bGasV0_nglml6GjyVDKy-148" value="IdProject" style="shape=partialRectangle;html=1;whiteSpace=wrap;connectable=0;strokeColor=inherit;overflow=hidden;fillColor=none;top=0;left=0;bottom=0;right=0;pointerEvents=1;align=left;spacingLeft=5;fontStyle=1" vertex="1" parent="bGasV0_nglml6GjyVDKy-146">
          <mxGeometry x="40" width="240" height="40" as="geometry">
            <mxRectangle width="240" height="40" as="alternateBounds" />
          </mxGeometry>
        </mxCell>
        <mxCell id="bGasV0_nglml6GjyVDKy-149" value="GUID" style="shape=partialRectangle;html=1;whiteSpace=wrap;connectable=0;strokeColor=inherit;overflow=hidden;fillColor=none;top=0;left=0;bottom=0;right=0;pointerEvents=1;spacingLeft=5;align=left;fontColor=#0033ff;fontStyle=1" vertex="1" parent="bGasV0_nglml6GjyVDKy-146">
          <mxGeometry x="280" width="120" height="40" as="geometry">
            <mxRectangle width="120" height="40" as="alternateBounds" />
          </mxGeometry>
        </mxCell>
        <mxCell id="bGasV0_nglml6GjyVDKy-150" value="" style="shape=tableRow;horizontal=0;startSize=0;swimlaneHead=0;swimlaneBody=0;strokeColor=inherit;top=0;left=0;bottom=0;right=0;collapsible=0;dropTarget=0;fillColor=none;points=[[0,0.5],[1,0.5]];portConstraint=eastwest;" vertex="1" parent="bGasV0_nglml6GjyVDKy-145">
          <mxGeometry y="80" width="400" height="40" as="geometry" />
        </mxCell>
        <mxCell id="bGasV0_nglml6GjyVDKy-151" value="PK" style="shape=partialRectangle;html=1;whiteSpace=wrap;connectable=0;strokeColor=inherit;overflow=hidden;fillColor=none;top=0;left=0;bottom=0;right=0;pointerEvents=1;align=center;fontStyle=1" vertex="1" parent="bGasV0_nglml6GjyVDKy-150">
          <mxGeometry width="40" height="40" as="geometry">
            <mxRectangle width="40" height="40" as="alternateBounds" />
          </mxGeometry>
        </mxCell>
        <mxCell id="bGasV0_nglml6GjyVDKy-152" value="IdUser" style="shape=partialRectangle;html=1;whiteSpace=wrap;connectable=0;strokeColor=inherit;overflow=hidden;fillColor=none;top=0;left=0;bottom=0;right=0;pointerEvents=1;align=left;spacingLeft=5;fontStyle=1" vertex="1" parent="bGasV0_nglml6GjyVDKy-150">
          <mxGeometry x="40" width="240" height="40" as="geometry">
            <mxRectangle width="240" height="40" as="alternateBounds" />
          </mxGeometry>
        </mxCell>
        <mxCell id="bGasV0_nglml6GjyVDKy-153" value="GUID" style="shape=partialRectangle;html=1;whiteSpace=wrap;connectable=0;strokeColor=inherit;overflow=hidden;fillColor=none;top=0;left=0;bottom=0;right=0;pointerEvents=1;spacingLeft=5;align=left;fontColor=#0033ff;fontStyle=1" vertex="1" parent="bGasV0_nglml6GjyVDKy-150">
          <mxGeometry x="280" width="120" height="40" as="geometry">
            <mxRectangle width="120" height="40" as="alternateBounds" />
          </mxGeometry>
        </mxCell>
        <mxCell id="bGasV0_nglml6GjyVDKy-158" value="" style="shape=tableRow;horizontal=0;startSize=0;swimlaneHead=0;swimlaneBody=0;strokeColor=inherit;top=0;left=0;bottom=0;right=0;collapsible=0;dropTarget=0;fillColor=none;points=[[0,0.5],[1,0.5]];portConstraint=eastwest;" vertex="1" parent="bGasV0_nglml6GjyVDKy-145">
          <mxGeometry y="120" width="400" height="40" as="geometry" />
        </mxCell>
        <mxCell id="bGasV0_nglml6GjyVDKy-159" value="" style="shape=partialRectangle;html=1;whiteSpace=wrap;connectable=0;strokeColor=inherit;overflow=hidden;fillColor=none;top=0;left=0;bottom=0;right=0;pointerEvents=1;align=center;fontStyle=1" vertex="1" parent="bGasV0_nglml6GjyVDKy-158">
          <mxGeometry width="40" height="40" as="geometry">
            <mxRectangle width="40" height="40" as="alternateBounds" />
          </mxGeometry>
        </mxCell>
        <mxCell id="bGasV0_nglml6GjyVDKy-160" value="IncludedBy" style="shape=partialRectangle;html=1;whiteSpace=wrap;connectable=0;strokeColor=inherit;overflow=hidden;fillColor=none;top=0;left=0;bottom=0;right=0;pointerEvents=1;align=left;spacingLeft=5;fontStyle=1" vertex="1" parent="bGasV0_nglml6GjyVDKy-158">
          <mxGeometry x="40" width="240" height="40" as="geometry">
            <mxRectangle width="240" height="40" as="alternateBounds" />
          </mxGeometry>
        </mxCell>
        <mxCell id="bGasV0_nglml6GjyVDKy-161" value="GUID" style="shape=partialRectangle;html=1;whiteSpace=wrap;connectable=0;strokeColor=inherit;overflow=hidden;fillColor=none;top=0;left=0;bottom=0;right=0;pointerEvents=1;spacingLeft=5;align=left;fontColor=#0033ff;fontStyle=1" vertex="1" parent="bGasV0_nglml6GjyVDKy-158">
          <mxGeometry x="280" width="120" height="40" as="geometry">
            <mxRectangle width="120" height="40" as="alternateBounds" />
          </mxGeometry>
        </mxCell>
        <mxCell id="bGasV0_nglml6GjyVDKy-154" value="" style="shape=tableRow;horizontal=0;startSize=0;swimlaneHead=0;swimlaneBody=0;strokeColor=inherit;top=0;left=0;bottom=0;right=0;collapsible=0;dropTarget=0;fillColor=none;points=[[0,0.5],[1,0.5]];portConstraint=eastwest;" vertex="1" parent="bGasV0_nglml6GjyVDKy-145">
          <mxGeometry y="160" width="400" height="40" as="geometry" />
        </mxCell>
        <mxCell id="bGasV0_nglml6GjyVDKy-155" value="" style="shape=partialRectangle;html=1;whiteSpace=wrap;connectable=0;strokeColor=inherit;overflow=hidden;fillColor=none;top=0;left=0;bottom=0;right=0;pointerEvents=1;align=center;fontStyle=1" vertex="1" parent="bGasV0_nglml6GjyVDKy-154">
          <mxGeometry width="40" height="40" as="geometry">
            <mxRectangle width="40" height="40" as="alternateBounds" />
          </mxGeometry>
        </mxCell>
        <mxCell id="bGasV0_nglml6GjyVDKy-156" value="IncludedAt" style="shape=partialRectangle;html=1;whiteSpace=wrap;connectable=0;strokeColor=inherit;overflow=hidden;fillColor=none;top=0;left=0;bottom=0;right=0;pointerEvents=1;align=left;spacingLeft=5;fontStyle=1" vertex="1" parent="bGasV0_nglml6GjyVDKy-154">
          <mxGeometry x="40" width="240" height="40" as="geometry">
            <mxRectangle width="240" height="40" as="alternateBounds" />
          </mxGeometry>
        </mxCell>
        <mxCell id="bGasV0_nglml6GjyVDKy-157" value="DATETIME" style="shape=partialRectangle;html=1;whiteSpace=wrap;connectable=0;strokeColor=inherit;overflow=hidden;fillColor=none;top=0;left=0;bottom=0;right=0;pointerEvents=1;spacingLeft=5;align=left;fontColor=#0033ff;fontStyle=1" vertex="1" parent="bGasV0_nglml6GjyVDKy-154">
          <mxGeometry x="280" width="120" height="40" as="geometry">
            <mxRectangle width="120" height="40" as="alternateBounds" />
          </mxGeometry>
        </mxCell>
        <mxCell id="bGasV0_nglml6GjyVDKy-200" value="" style="shape=tableRow;horizontal=0;startSize=0;swimlaneHead=0;swimlaneBody=0;strokeColor=inherit;top=0;left=0;bottom=0;right=0;collapsible=0;dropTarget=0;fillColor=none;points=[[0,0.5],[1,0.5]];portConstraint=eastwest;" vertex="1" parent="bGasV0_nglml6GjyVDKy-145">
          <mxGeometry y="200" width="400" height="40" as="geometry" />
        </mxCell>
        <mxCell id="bGasV0_nglml6GjyVDKy-201" value="" style="shape=partialRectangle;html=1;whiteSpace=wrap;connectable=0;strokeColor=inherit;overflow=hidden;fillColor=none;top=0;left=0;bottom=0;right=0;pointerEvents=1;align=center;fontStyle=1" vertex="1" parent="bGasV0_nglml6GjyVDKy-200">
          <mxGeometry width="40" height="40" as="geometry">
            <mxRectangle width="40" height="40" as="alternateBounds" />
          </mxGeometry>
        </mxCell>
        <mxCell id="bGasV0_nglml6GjyVDKy-202" value="ChangeProject" style="shape=partialRectangle;html=1;whiteSpace=wrap;connectable=0;strokeColor=inherit;overflow=hidden;fillColor=none;top=0;left=0;bottom=0;right=0;pointerEvents=1;align=left;spacingLeft=5;fontStyle=1" vertex="1" parent="bGasV0_nglml6GjyVDKy-200">
          <mxGeometry x="40" width="240" height="40" as="geometry">
            <mxRectangle width="240" height="40" as="alternateBounds" />
          </mxGeometry>
        </mxCell>
        <mxCell id="bGasV0_nglml6GjyVDKy-203" value="BIT" style="shape=partialRectangle;html=1;whiteSpace=wrap;connectable=0;strokeColor=inherit;overflow=hidden;fillColor=none;top=0;left=0;bottom=0;right=0;pointerEvents=1;spacingLeft=5;align=left;fontColor=#0033ff;fontStyle=1" vertex="1" parent="bGasV0_nglml6GjyVDKy-200">
          <mxGeometry x="280" width="120" height="40" as="geometry">
            <mxRectangle width="120" height="40" as="alternateBounds" />
          </mxGeometry>
        </mxCell>
        <mxCell id="bGasV0_nglml6GjyVDKy-180" value="" style="shape=tableRow;horizontal=0;startSize=0;swimlaneHead=0;swimlaneBody=0;strokeColor=inherit;top=0;left=0;bottom=0;right=0;collapsible=0;dropTarget=0;fillColor=none;points=[[0,0.5],[1,0.5]];portConstraint=eastwest;" vertex="1" parent="bGasV0_nglml6GjyVDKy-145">
          <mxGeometry y="240" width="400" height="40" as="geometry" />
        </mxCell>
        <mxCell id="bGasV0_nglml6GjyVDKy-181" value="" style="shape=partialRectangle;html=1;whiteSpace=wrap;connectable=0;strokeColor=inherit;overflow=hidden;fillColor=none;top=0;left=0;bottom=0;right=0;pointerEvents=1;align=center;fontStyle=1" vertex="1" parent="bGasV0_nglml6GjyVDKy-180">
          <mxGeometry width="40" height="40" as="geometry">
            <mxRectangle width="40" height="40" as="alternateBounds" />
          </mxGeometry>
        </mxCell>
        <mxCell id="bGasV0_nglml6GjyVDKy-182" value="CreateTasks" style="shape=partialRectangle;html=1;whiteSpace=wrap;connectable=0;strokeColor=inherit;overflow=hidden;fillColor=none;top=0;left=0;bottom=0;right=0;pointerEvents=1;align=left;spacingLeft=5;fontStyle=1" vertex="1" parent="bGasV0_nglml6GjyVDKy-180">
          <mxGeometry x="40" width="240" height="40" as="geometry">
            <mxRectangle width="240" height="40" as="alternateBounds" />
          </mxGeometry>
        </mxCell>
        <mxCell id="bGasV0_nglml6GjyVDKy-183" value="BIT" style="shape=partialRectangle;html=1;whiteSpace=wrap;connectable=0;strokeColor=inherit;overflow=hidden;fillColor=none;top=0;left=0;bottom=0;right=0;pointerEvents=1;spacingLeft=5;align=left;fontColor=#0033ff;fontStyle=1" vertex="1" parent="bGasV0_nglml6GjyVDKy-180">
          <mxGeometry x="280" width="120" height="40" as="geometry">
            <mxRectangle width="120" height="40" as="alternateBounds" />
          </mxGeometry>
        </mxCell>
        <mxCell id="bGasV0_nglml6GjyVDKy-184" value="" style="shape=tableRow;horizontal=0;startSize=0;swimlaneHead=0;swimlaneBody=0;strokeColor=inherit;top=0;left=0;bottom=0;right=0;collapsible=0;dropTarget=0;fillColor=none;points=[[0,0.5],[1,0.5]];portConstraint=eastwest;" vertex="1" parent="bGasV0_nglml6GjyVDKy-145">
          <mxGeometry y="280" width="400" height="40" as="geometry" />
        </mxCell>
        <mxCell id="bGasV0_nglml6GjyVDKy-185" value="" style="shape=partialRectangle;html=1;whiteSpace=wrap;connectable=0;strokeColor=inherit;overflow=hidden;fillColor=none;top=0;left=0;bottom=0;right=0;pointerEvents=1;align=center;fontStyle=1" vertex="1" parent="bGasV0_nglml6GjyVDKy-184">
          <mxGeometry width="40" height="40" as="geometry">
            <mxRectangle width="40" height="40" as="alternateBounds" />
          </mxGeometry>
        </mxCell>
        <mxCell id="bGasV0_nglml6GjyVDKy-186" value="ChangeTasks" style="shape=partialRectangle;html=1;whiteSpace=wrap;connectable=0;strokeColor=inherit;overflow=hidden;fillColor=none;top=0;left=0;bottom=0;right=0;pointerEvents=1;align=left;spacingLeft=5;fontStyle=1" vertex="1" parent="bGasV0_nglml6GjyVDKy-184">
          <mxGeometry x="40" width="240" height="40" as="geometry">
            <mxRectangle width="240" height="40" as="alternateBounds" />
          </mxGeometry>
        </mxCell>
        <mxCell id="bGasV0_nglml6GjyVDKy-187" value="BIT" style="shape=partialRectangle;html=1;whiteSpace=wrap;connectable=0;strokeColor=inherit;overflow=hidden;fillColor=none;top=0;left=0;bottom=0;right=0;pointerEvents=1;spacingLeft=5;align=left;fontColor=#0033ff;fontStyle=1" vertex="1" parent="bGasV0_nglml6GjyVDKy-184">
          <mxGeometry x="280" width="120" height="40" as="geometry">
            <mxRectangle width="120" height="40" as="alternateBounds" />
          </mxGeometry>
        </mxCell>
        <mxCell id="bGasV0_nglml6GjyVDKy-188" value="" style="shape=tableRow;horizontal=0;startSize=0;swimlaneHead=0;swimlaneBody=0;strokeColor=inherit;top=0;left=0;bottom=0;right=0;collapsible=0;dropTarget=0;fillColor=none;points=[[0,0.5],[1,0.5]];portConstraint=eastwest;" vertex="1" parent="bGasV0_nglml6GjyVDKy-145">
          <mxGeometry y="320" width="400" height="40" as="geometry" />
        </mxCell>
        <mxCell id="bGasV0_nglml6GjyVDKy-189" value="" style="shape=partialRectangle;html=1;whiteSpace=wrap;connectable=0;strokeColor=inherit;overflow=hidden;fillColor=none;top=0;left=0;bottom=0;right=0;pointerEvents=1;align=center;fontStyle=1" vertex="1" parent="bGasV0_nglml6GjyVDKy-188">
          <mxGeometry width="40" height="40" as="geometry">
            <mxRectangle width="40" height="40" as="alternateBounds" />
          </mxGeometry>
        </mxCell>
        <mxCell id="bGasV0_nglml6GjyVDKy-190" value="ChangeTasksStatus" style="shape=partialRectangle;html=1;whiteSpace=wrap;connectable=0;strokeColor=inherit;overflow=hidden;fillColor=none;top=0;left=0;bottom=0;right=0;pointerEvents=1;align=left;spacingLeft=5;fontStyle=1" vertex="1" parent="bGasV0_nglml6GjyVDKy-188">
          <mxGeometry x="40" width="240" height="40" as="geometry">
            <mxRectangle width="240" height="40" as="alternateBounds" />
          </mxGeometry>
        </mxCell>
        <mxCell id="bGasV0_nglml6GjyVDKy-191" value="BIT" style="shape=partialRectangle;html=1;whiteSpace=wrap;connectable=0;strokeColor=inherit;overflow=hidden;fillColor=none;top=0;left=0;bottom=0;right=0;pointerEvents=1;spacingLeft=5;align=left;fontColor=#0033ff;fontStyle=1" vertex="1" parent="bGasV0_nglml6GjyVDKy-188">
          <mxGeometry x="280" width="120" height="40" as="geometry">
            <mxRectangle width="120" height="40" as="alternateBounds" />
          </mxGeometry>
        </mxCell>
        <mxCell id="bGasV0_nglml6GjyVDKy-192" value="" style="shape=tableRow;horizontal=0;startSize=0;swimlaneHead=0;swimlaneBody=0;strokeColor=inherit;top=0;left=0;bottom=0;right=0;collapsible=0;dropTarget=0;fillColor=none;points=[[0,0.5],[1,0.5]];portConstraint=eastwest;" vertex="1" parent="bGasV0_nglml6GjyVDKy-145">
          <mxGeometry y="360" width="400" height="40" as="geometry" />
        </mxCell>
        <mxCell id="bGasV0_nglml6GjyVDKy-193" value="" style="shape=partialRectangle;html=1;whiteSpace=wrap;connectable=0;strokeColor=inherit;overflow=hidden;fillColor=none;top=0;left=0;bottom=0;right=0;pointerEvents=1;align=center;fontStyle=1" vertex="1" parent="bGasV0_nglml6GjyVDKy-192">
          <mxGeometry width="40" height="40" as="geometry">
            <mxRectangle width="40" height="40" as="alternateBounds" />
          </mxGeometry>
        </mxCell>
        <mxCell id="bGasV0_nglml6GjyVDKy-194" value="CreateBuckets" style="shape=partialRectangle;html=1;whiteSpace=wrap;connectable=0;strokeColor=inherit;overflow=hidden;fillColor=none;top=0;left=0;bottom=0;right=0;pointerEvents=1;align=left;spacingLeft=5;fontStyle=1" vertex="1" parent="bGasV0_nglml6GjyVDKy-192">
          <mxGeometry x="40" width="240" height="40" as="geometry">
            <mxRectangle width="240" height="40" as="alternateBounds" />
          </mxGeometry>
        </mxCell>
        <mxCell id="bGasV0_nglml6GjyVDKy-195" value="BIT" style="shape=partialRectangle;html=1;whiteSpace=wrap;connectable=0;strokeColor=inherit;overflow=hidden;fillColor=none;top=0;left=0;bottom=0;right=0;pointerEvents=1;spacingLeft=5;align=left;fontColor=#0033ff;fontStyle=1" vertex="1" parent="bGasV0_nglml6GjyVDKy-192">
          <mxGeometry x="280" width="120" height="40" as="geometry">
            <mxRectangle width="120" height="40" as="alternateBounds" />
          </mxGeometry>
        </mxCell>
        <mxCell id="bGasV0_nglml6GjyVDKy-278" value="" style="shape=tableRow;horizontal=0;startSize=0;swimlaneHead=0;swimlaneBody=0;strokeColor=inherit;top=0;left=0;bottom=0;right=0;collapsible=0;dropTarget=0;fillColor=none;points=[[0,0.5],[1,0.5]];portConstraint=eastwest;" vertex="1" parent="bGasV0_nglml6GjyVDKy-145">
          <mxGeometry y="400" width="400" height="40" as="geometry" />
        </mxCell>
        <mxCell id="bGasV0_nglml6GjyVDKy-279" value="" style="shape=partialRectangle;html=1;whiteSpace=wrap;connectable=0;strokeColor=inherit;overflow=hidden;fillColor=none;top=0;left=0;bottom=0;right=0;pointerEvents=1;align=center;fontStyle=1" vertex="1" parent="bGasV0_nglml6GjyVDKy-278">
          <mxGeometry width="40" height="40" as="geometry">
            <mxRectangle width="40" height="40" as="alternateBounds" />
          </mxGeometry>
        </mxCell>
        <mxCell id="bGasV0_nglml6GjyVDKy-280" value="ChangeTasksBucket" style="shape=partialRectangle;html=1;whiteSpace=wrap;connectable=0;strokeColor=inherit;overflow=hidden;fillColor=none;top=0;left=0;bottom=0;right=0;pointerEvents=1;align=left;spacingLeft=5;fontStyle=1" vertex="1" parent="bGasV0_nglml6GjyVDKy-278">
          <mxGeometry x="40" width="240" height="40" as="geometry">
            <mxRectangle width="240" height="40" as="alternateBounds" />
          </mxGeometry>
        </mxCell>
        <mxCell id="bGasV0_nglml6GjyVDKy-281" value="BIT" style="shape=partialRectangle;html=1;whiteSpace=wrap;connectable=0;strokeColor=inherit;overflow=hidden;fillColor=none;top=0;left=0;bottom=0;right=0;pointerEvents=1;spacingLeft=5;align=left;fontColor=#0033ff;fontStyle=1" vertex="1" parent="bGasV0_nglml6GjyVDKy-278">
          <mxGeometry x="280" width="120" height="40" as="geometry">
            <mxRectangle width="120" height="40" as="alternateBounds" />
          </mxGeometry>
        </mxCell>
        <mxCell id="bGasV0_nglml6GjyVDKy-196" value="" style="shape=tableRow;horizontal=0;startSize=0;swimlaneHead=0;swimlaneBody=0;strokeColor=inherit;top=0;left=0;bottom=0;right=0;collapsible=0;dropTarget=0;fillColor=none;points=[[0,0.5],[1,0.5]];portConstraint=eastwest;" vertex="1" parent="bGasV0_nglml6GjyVDKy-145">
          <mxGeometry y="440" width="400" height="40" as="geometry" />
        </mxCell>
        <mxCell id="bGasV0_nglml6GjyVDKy-197" value="" style="shape=partialRectangle;html=1;whiteSpace=wrap;connectable=0;strokeColor=inherit;overflow=hidden;fillColor=none;top=0;left=0;bottom=0;right=0;pointerEvents=1;align=center;fontStyle=1" vertex="1" parent="bGasV0_nglml6GjyVDKy-196">
          <mxGeometry width="40" height="40" as="geometry">
            <mxRectangle width="40" height="40" as="alternateBounds" />
          </mxGeometry>
        </mxCell>
        <mxCell id="bGasV0_nglml6GjyVDKy-198" value="CreateTags" style="shape=partialRectangle;html=1;whiteSpace=wrap;connectable=0;strokeColor=inherit;overflow=hidden;fillColor=none;top=0;left=0;bottom=0;right=0;pointerEvents=1;align=left;spacingLeft=5;fontStyle=1" vertex="1" parent="bGasV0_nglml6GjyVDKy-196">
          <mxGeometry x="40" width="240" height="40" as="geometry">
            <mxRectangle width="240" height="40" as="alternateBounds" />
          </mxGeometry>
        </mxCell>
        <mxCell id="bGasV0_nglml6GjyVDKy-199" value="BIT" style="shape=partialRectangle;html=1;whiteSpace=wrap;connectable=0;strokeColor=inherit;overflow=hidden;fillColor=none;top=0;left=0;bottom=0;right=0;pointerEvents=1;spacingLeft=5;align=left;fontColor=#0033ff;fontStyle=1" vertex="1" parent="bGasV0_nglml6GjyVDKy-196">
          <mxGeometry x="280" width="120" height="40" as="geometry">
            <mxRectangle width="120" height="40" as="alternateBounds" />
          </mxGeometry>
        </mxCell>
        <mxCell id="bGasV0_nglml6GjyVDKy-274" value="" style="shape=tableRow;horizontal=0;startSize=0;swimlaneHead=0;swimlaneBody=0;strokeColor=inherit;top=0;left=0;bottom=0;right=0;collapsible=0;dropTarget=0;fillColor=none;points=[[0,0.5],[1,0.5]];portConstraint=eastwest;" vertex="1" parent="bGasV0_nglml6GjyVDKy-145">
          <mxGeometry y="480" width="400" height="40" as="geometry" />
        </mxCell>
        <mxCell id="bGasV0_nglml6GjyVDKy-275" value="" style="shape=partialRectangle;html=1;whiteSpace=wrap;connectable=0;strokeColor=inherit;overflow=hidden;fillColor=none;top=0;left=0;bottom=0;right=0;pointerEvents=1;align=center;fontStyle=1" vertex="1" parent="bGasV0_nglml6GjyVDKy-274">
          <mxGeometry width="40" height="40" as="geometry">
            <mxRectangle width="40" height="40" as="alternateBounds" />
          </mxGeometry>
        </mxCell>
        <mxCell id="bGasV0_nglml6GjyVDKy-276" value="ChangeTasksTags" style="shape=partialRectangle;html=1;whiteSpace=wrap;connectable=0;strokeColor=inherit;overflow=hidden;fillColor=none;top=0;left=0;bottom=0;right=0;pointerEvents=1;align=left;spacingLeft=5;fontStyle=1" vertex="1" parent="bGasV0_nglml6GjyVDKy-274">
          <mxGeometry x="40" width="240" height="40" as="geometry">
            <mxRectangle width="240" height="40" as="alternateBounds" />
          </mxGeometry>
        </mxCell>
        <mxCell id="bGasV0_nglml6GjyVDKy-277" value="BIT" style="shape=partialRectangle;html=1;whiteSpace=wrap;connectable=0;strokeColor=inherit;overflow=hidden;fillColor=none;top=0;left=0;bottom=0;right=0;pointerEvents=1;spacingLeft=5;align=left;fontColor=#0033ff;fontStyle=1" vertex="1" parent="bGasV0_nglml6GjyVDKy-274">
          <mxGeometry x="280" width="120" height="40" as="geometry">
            <mxRectangle width="120" height="40" as="alternateBounds" />
          </mxGeometry>
        </mxCell>
        <mxCell id="bGasV0_nglml6GjyVDKy-178" value="" style="edgeStyle=entityRelationEdgeStyle;fontSize=12;html=1;endArrow=ERmandOne;startArrow=ERoneToMany;rounded=0;strokeColor=#336600;strokeWidth=3;entryX=0;entryY=0.5;entryDx=0;entryDy=0;startFill=0;" edge="1" parent="1" source="bGasV0_nglml6GjyVDKy-150" target="bGasV0_nglml6GjyVDKy-122">
          <mxGeometry width="100" height="100" relative="1" as="geometry">
            <mxPoint x="-110" y="320" as="sourcePoint" />
            <mxPoint x="50" y="240" as="targetPoint" />
          </mxGeometry>
        </mxCell>
        <mxCell id="bGasV0_nglml6GjyVDKy-179" value="" style="edgeStyle=entityRelationEdgeStyle;fontSize=12;html=1;endArrow=ERmandOne;startArrow=ERoneToMany;rounded=0;strokeColor=#3700CC;strokeWidth=3;startFill=0;" edge="1" parent="1" source="bGasV0_nglml6GjyVDKy-146" target="bGasV0_nglml6GjyVDKy-19">
          <mxGeometry width="100" height="100" relative="1" as="geometry">
            <mxPoint x="60" y="400" as="sourcePoint" />
            <mxPoint x="220" y="320" as="targetPoint" />
          </mxGeometry>
        </mxCell>
        <mxCell id="bGasV0_nglml6GjyVDKy-204" value="core.tb_WORKS" style="shape=table;startSize=40;container=1;collapsible=0;childLayout=tableLayout;fillColor=#FF00FF;fontColor=#ffffff;strokeColor=#FF00FF;fontStyle=1;fontSize=20;" vertex="1" parent="1">
          <mxGeometry x="360" y="920" width="400" height="440" as="geometry" />
        </mxCell>
        <mxCell id="bGasV0_nglml6GjyVDKy-205" value="" style="shape=tableRow;horizontal=0;startSize=0;swimlaneHead=0;swimlaneBody=0;strokeColor=inherit;top=0;left=0;bottom=0;right=0;collapsible=0;dropTarget=0;fillColor=none;points=[[0,0.5],[1,0.5]];portConstraint=eastwest;" vertex="1" parent="bGasV0_nglml6GjyVDKy-204">
          <mxGeometry y="40" width="400" height="40" as="geometry" />
        </mxCell>
        <mxCell id="bGasV0_nglml6GjyVDKy-206" value="PK" style="shape=partialRectangle;html=1;whiteSpace=wrap;connectable=0;strokeColor=inherit;overflow=hidden;fillColor=none;top=0;left=0;bottom=0;right=0;pointerEvents=1;align=center;fontStyle=1" vertex="1" parent="bGasV0_nglml6GjyVDKy-205">
          <mxGeometry width="40" height="40" as="geometry">
            <mxRectangle width="40" height="40" as="alternateBounds" />
          </mxGeometry>
        </mxCell>
        <mxCell id="bGasV0_nglml6GjyVDKy-207" value="Id" style="shape=partialRectangle;html=1;whiteSpace=wrap;connectable=0;strokeColor=inherit;overflow=hidden;fillColor=none;top=0;left=0;bottom=0;right=0;pointerEvents=1;align=left;spacingLeft=5;fontStyle=1" vertex="1" parent="bGasV0_nglml6GjyVDKy-205">
          <mxGeometry x="40" width="240" height="40" as="geometry">
            <mxRectangle width="240" height="40" as="alternateBounds" />
          </mxGeometry>
        </mxCell>
        <mxCell id="bGasV0_nglml6GjyVDKy-208" value="GUID" style="shape=partialRectangle;html=1;whiteSpace=wrap;connectable=0;strokeColor=inherit;overflow=hidden;fillColor=none;top=0;left=0;bottom=0;right=0;pointerEvents=1;spacingLeft=5;align=left;fontColor=#0033ff;fontStyle=1" vertex="1" parent="bGasV0_nglml6GjyVDKy-205">
          <mxGeometry x="280" width="120" height="40" as="geometry">
            <mxRectangle width="120" height="40" as="alternateBounds" />
          </mxGeometry>
        </mxCell>
        <mxCell id="bGasV0_nglml6GjyVDKy-237" value="" style="shape=tableRow;horizontal=0;startSize=0;swimlaneHead=0;swimlaneBody=0;strokeColor=inherit;top=0;left=0;bottom=0;right=0;collapsible=0;dropTarget=0;fillColor=none;points=[[0,0.5],[1,0.5]];portConstraint=eastwest;" vertex="1" parent="bGasV0_nglml6GjyVDKy-204">
          <mxGeometry y="80" width="400" height="40" as="geometry" />
        </mxCell>
        <mxCell id="bGasV0_nglml6GjyVDKy-238" value="FK" style="shape=partialRectangle;html=1;whiteSpace=wrap;connectable=0;strokeColor=inherit;overflow=hidden;fillColor=none;top=0;left=0;bottom=0;right=0;pointerEvents=1;align=center;fontStyle=1" vertex="1" parent="bGasV0_nglml6GjyVDKy-237">
          <mxGeometry width="40" height="40" as="geometry">
            <mxRectangle width="40" height="40" as="alternateBounds" />
          </mxGeometry>
        </mxCell>
        <mxCell id="bGasV0_nglml6GjyVDKy-239" value="IdProject" style="shape=partialRectangle;html=1;whiteSpace=wrap;connectable=0;strokeColor=inherit;overflow=hidden;fillColor=none;top=0;left=0;bottom=0;right=0;pointerEvents=1;align=left;spacingLeft=5;fontStyle=1" vertex="1" parent="bGasV0_nglml6GjyVDKy-237">
          <mxGeometry x="40" width="240" height="40" as="geometry">
            <mxRectangle width="240" height="40" as="alternateBounds" />
          </mxGeometry>
        </mxCell>
        <mxCell id="bGasV0_nglml6GjyVDKy-240" value="GUID" style="shape=partialRectangle;html=1;whiteSpace=wrap;connectable=0;strokeColor=inherit;overflow=hidden;fillColor=none;top=0;left=0;bottom=0;right=0;pointerEvents=1;spacingLeft=5;align=left;fontColor=#0033ff;fontStyle=1" vertex="1" parent="bGasV0_nglml6GjyVDKy-237">
          <mxGeometry x="280" width="120" height="40" as="geometry">
            <mxRectangle width="120" height="40" as="alternateBounds" />
          </mxGeometry>
        </mxCell>
        <mxCell id="bGasV0_nglml6GjyVDKy-259" value="" style="shape=tableRow;horizontal=0;startSize=0;swimlaneHead=0;swimlaneBody=0;strokeColor=inherit;top=0;left=0;bottom=0;right=0;collapsible=0;dropTarget=0;fillColor=none;points=[[0,0.5],[1,0.5]];portConstraint=eastwest;" vertex="1" parent="bGasV0_nglml6GjyVDKy-204">
          <mxGeometry y="120" width="400" height="40" as="geometry" />
        </mxCell>
        <mxCell id="bGasV0_nglml6GjyVDKy-260" value="FK" style="shape=partialRectangle;html=1;whiteSpace=wrap;connectable=0;strokeColor=inherit;overflow=hidden;fillColor=none;top=0;left=0;bottom=0;right=0;pointerEvents=1;align=center;fontStyle=1" vertex="1" parent="bGasV0_nglml6GjyVDKy-259">
          <mxGeometry width="40" height="40" as="geometry">
            <mxRectangle width="40" height="40" as="alternateBounds" />
          </mxGeometry>
        </mxCell>
        <mxCell id="bGasV0_nglml6GjyVDKy-261" value="IdBucket" style="shape=partialRectangle;html=1;whiteSpace=wrap;connectable=0;strokeColor=inherit;overflow=hidden;fillColor=none;top=0;left=0;bottom=0;right=0;pointerEvents=1;align=left;spacingLeft=5;fontStyle=1" vertex="1" parent="bGasV0_nglml6GjyVDKy-259">
          <mxGeometry x="40" width="240" height="40" as="geometry">
            <mxRectangle width="240" height="40" as="alternateBounds" />
          </mxGeometry>
        </mxCell>
        <mxCell id="bGasV0_nglml6GjyVDKy-262" value="GUID" style="shape=partialRectangle;html=1;whiteSpace=wrap;connectable=0;strokeColor=inherit;overflow=hidden;fillColor=none;top=0;left=0;bottom=0;right=0;pointerEvents=1;spacingLeft=5;align=left;fontColor=#0033ff;fontStyle=1" vertex="1" parent="bGasV0_nglml6GjyVDKy-259">
          <mxGeometry x="280" width="120" height="40" as="geometry">
            <mxRectangle width="120" height="40" as="alternateBounds" />
          </mxGeometry>
        </mxCell>
        <mxCell id="bGasV0_nglml6GjyVDKy-209" value="" style="shape=tableRow;horizontal=0;startSize=0;swimlaneHead=0;swimlaneBody=0;strokeColor=inherit;top=0;left=0;bottom=0;right=0;collapsible=0;dropTarget=0;fillColor=none;points=[[0,0.5],[1,0.5]];portConstraint=eastwest;" vertex="1" parent="bGasV0_nglml6GjyVDKy-204">
          <mxGeometry y="160" width="400" height="40" as="geometry" />
        </mxCell>
        <mxCell id="bGasV0_nglml6GjyVDKy-210" value="" style="shape=partialRectangle;html=1;whiteSpace=wrap;connectable=0;strokeColor=inherit;overflow=hidden;fillColor=none;top=0;left=0;bottom=0;right=0;pointerEvents=1;align=center;fontStyle=1" vertex="1" parent="bGasV0_nglml6GjyVDKy-209">
          <mxGeometry width="40" height="40" as="geometry">
            <mxRectangle width="40" height="40" as="alternateBounds" />
          </mxGeometry>
        </mxCell>
        <mxCell id="bGasV0_nglml6GjyVDKy-211" value="Name" style="shape=partialRectangle;html=1;whiteSpace=wrap;connectable=0;strokeColor=inherit;overflow=hidden;fillColor=none;top=0;left=0;bottom=0;right=0;pointerEvents=1;align=left;spacingLeft=5;fontStyle=1" vertex="1" parent="bGasV0_nglml6GjyVDKy-209">
          <mxGeometry x="40" width="240" height="40" as="geometry">
            <mxRectangle width="240" height="40" as="alternateBounds" />
          </mxGeometry>
        </mxCell>
        <mxCell id="bGasV0_nglml6GjyVDKy-212" value="NVARCHAR(30)" style="shape=partialRectangle;html=1;whiteSpace=wrap;connectable=0;strokeColor=inherit;overflow=hidden;fillColor=none;top=0;left=0;bottom=0;right=0;pointerEvents=1;spacingLeft=5;align=left;fontColor=#0033ff;fontStyle=1" vertex="1" parent="bGasV0_nglml6GjyVDKy-209">
          <mxGeometry x="280" width="120" height="40" as="geometry">
            <mxRectangle width="120" height="40" as="alternateBounds" />
          </mxGeometry>
        </mxCell>
        <mxCell id="bGasV0_nglml6GjyVDKy-213" value="" style="shape=tableRow;horizontal=0;startSize=0;swimlaneHead=0;swimlaneBody=0;strokeColor=inherit;top=0;left=0;bottom=0;right=0;collapsible=0;dropTarget=0;fillColor=none;points=[[0,0.5],[1,0.5]];portConstraint=eastwest;" vertex="1" parent="bGasV0_nglml6GjyVDKy-204">
          <mxGeometry y="200" width="400" height="40" as="geometry" />
        </mxCell>
        <mxCell id="bGasV0_nglml6GjyVDKy-214" value="" style="shape=partialRectangle;html=1;whiteSpace=wrap;connectable=0;strokeColor=inherit;overflow=hidden;fillColor=none;top=0;left=0;bottom=0;right=0;pointerEvents=1;align=center;fontStyle=1" vertex="1" parent="bGasV0_nglml6GjyVDKy-213">
          <mxGeometry width="40" height="40" as="geometry">
            <mxRectangle width="40" height="40" as="alternateBounds" />
          </mxGeometry>
        </mxCell>
        <mxCell id="bGasV0_nglml6GjyVDKy-215" value="Description" style="shape=partialRectangle;html=1;whiteSpace=wrap;connectable=0;strokeColor=inherit;overflow=hidden;fillColor=none;top=0;left=0;bottom=0;right=0;pointerEvents=1;align=left;spacingLeft=5;fontStyle=1" vertex="1" parent="bGasV0_nglml6GjyVDKy-213">
          <mxGeometry x="40" width="240" height="40" as="geometry">
            <mxRectangle width="240" height="40" as="alternateBounds" />
          </mxGeometry>
        </mxCell>
        <mxCell id="bGasV0_nglml6GjyVDKy-216" value="NVARCHAR(250)" style="shape=partialRectangle;html=1;whiteSpace=wrap;connectable=0;strokeColor=inherit;overflow=hidden;fillColor=none;top=0;left=0;bottom=0;right=0;pointerEvents=1;spacingLeft=5;align=left;fontColor=#0033ff;fontStyle=1" vertex="1" parent="bGasV0_nglml6GjyVDKy-213">
          <mxGeometry x="280" width="120" height="40" as="geometry">
            <mxRectangle width="120" height="40" as="alternateBounds" />
          </mxGeometry>
        </mxCell>
        <mxCell id="bGasV0_nglml6GjyVDKy-217" value="" style="shape=tableRow;horizontal=0;startSize=0;swimlaneHead=0;swimlaneBody=0;strokeColor=inherit;top=0;left=0;bottom=0;right=0;collapsible=0;dropTarget=0;fillColor=none;points=[[0,0.5],[1,0.5]];portConstraint=eastwest;" vertex="1" parent="bGasV0_nglml6GjyVDKy-204">
          <mxGeometry y="240" width="400" height="40" as="geometry" />
        </mxCell>
        <mxCell id="bGasV0_nglml6GjyVDKy-218" value="" style="shape=partialRectangle;html=1;whiteSpace=wrap;connectable=0;strokeColor=inherit;overflow=hidden;fillColor=none;top=0;left=0;bottom=0;right=0;pointerEvents=1;align=center;fontStyle=1" vertex="1" parent="bGasV0_nglml6GjyVDKy-217">
          <mxGeometry width="40" height="40" as="geometry">
            <mxRectangle width="40" height="40" as="alternateBounds" />
          </mxGeometry>
        </mxCell>
        <mxCell id="bGasV0_nglml6GjyVDKy-219" value="CreatedAt" style="shape=partialRectangle;html=1;whiteSpace=wrap;connectable=0;strokeColor=inherit;overflow=hidden;fillColor=none;top=0;left=0;bottom=0;right=0;pointerEvents=1;align=left;spacingLeft=5;fontStyle=1" vertex="1" parent="bGasV0_nglml6GjyVDKy-217">
          <mxGeometry x="40" width="240" height="40" as="geometry">
            <mxRectangle width="240" height="40" as="alternateBounds" />
          </mxGeometry>
        </mxCell>
        <mxCell id="bGasV0_nglml6GjyVDKy-220" value="DATETIME" style="shape=partialRectangle;html=1;whiteSpace=wrap;connectable=0;strokeColor=inherit;overflow=hidden;fillColor=none;top=0;left=0;bottom=0;right=0;pointerEvents=1;spacingLeft=5;align=left;fontColor=#0033ff;fontStyle=1" vertex="1" parent="bGasV0_nglml6GjyVDKy-217">
          <mxGeometry x="280" width="120" height="40" as="geometry">
            <mxRectangle width="120" height="40" as="alternateBounds" />
          </mxGeometry>
        </mxCell>
        <mxCell id="bGasV0_nglml6GjyVDKy-221" value="" style="shape=tableRow;horizontal=0;startSize=0;swimlaneHead=0;swimlaneBody=0;strokeColor=inherit;top=0;left=0;bottom=0;right=0;collapsible=0;dropTarget=0;fillColor=none;points=[[0,0.5],[1,0.5]];portConstraint=eastwest;" vertex="1" parent="bGasV0_nglml6GjyVDKy-204">
          <mxGeometry y="280" width="400" height="40" as="geometry" />
        </mxCell>
        <mxCell id="bGasV0_nglml6GjyVDKy-222" value="FK" style="shape=partialRectangle;html=1;whiteSpace=wrap;connectable=0;strokeColor=inherit;overflow=hidden;fillColor=none;top=0;left=0;bottom=0;right=0;pointerEvents=1;align=center;fontStyle=1" vertex="1" parent="bGasV0_nglml6GjyVDKy-221">
          <mxGeometry width="40" height="40" as="geometry">
            <mxRectangle width="40" height="40" as="alternateBounds" />
          </mxGeometry>
        </mxCell>
        <mxCell id="bGasV0_nglml6GjyVDKy-223" value="CreatedBy" style="shape=partialRectangle;html=1;whiteSpace=wrap;connectable=0;strokeColor=inherit;overflow=hidden;fillColor=none;top=0;left=0;bottom=0;right=0;pointerEvents=1;align=left;spacingLeft=5;fontStyle=1" vertex="1" parent="bGasV0_nglml6GjyVDKy-221">
          <mxGeometry x="40" width="240" height="40" as="geometry">
            <mxRectangle width="240" height="40" as="alternateBounds" />
          </mxGeometry>
        </mxCell>
        <mxCell id="bGasV0_nglml6GjyVDKy-224" value="GUID" style="shape=partialRectangle;html=1;whiteSpace=wrap;connectable=0;strokeColor=inherit;overflow=hidden;fillColor=none;top=0;left=0;bottom=0;right=0;pointerEvents=1;spacingLeft=5;align=left;fontColor=#0033ff;fontStyle=1" vertex="1" parent="bGasV0_nglml6GjyVDKy-221">
          <mxGeometry x="280" width="120" height="40" as="geometry">
            <mxRectangle width="120" height="40" as="alternateBounds" />
          </mxGeometry>
        </mxCell>
        <mxCell id="bGasV0_nglml6GjyVDKy-225" value="" style="shape=tableRow;horizontal=0;startSize=0;swimlaneHead=0;swimlaneBody=0;strokeColor=inherit;top=0;left=0;bottom=0;right=0;collapsible=0;dropTarget=0;fillColor=none;points=[[0,0.5],[1,0.5]];portConstraint=eastwest;" vertex="1" parent="bGasV0_nglml6GjyVDKy-204">
          <mxGeometry y="320" width="400" height="40" as="geometry" />
        </mxCell>
        <mxCell id="bGasV0_nglml6GjyVDKy-226" value="" style="shape=partialRectangle;html=1;whiteSpace=wrap;connectable=0;strokeColor=inherit;overflow=hidden;fillColor=none;top=0;left=0;bottom=0;right=0;pointerEvents=1;align=center;fontStyle=1" vertex="1" parent="bGasV0_nglml6GjyVDKy-225">
          <mxGeometry width="40" height="40" as="geometry">
            <mxRectangle width="40" height="40" as="alternateBounds" />
          </mxGeometry>
        </mxCell>
        <mxCell id="bGasV0_nglml6GjyVDKy-227" value="UpdatedAt" style="shape=partialRectangle;html=1;whiteSpace=wrap;connectable=0;strokeColor=inherit;overflow=hidden;fillColor=none;top=0;left=0;bottom=0;right=0;pointerEvents=1;align=left;spacingLeft=5;fontStyle=1" vertex="1" parent="bGasV0_nglml6GjyVDKy-225">
          <mxGeometry x="40" width="240" height="40" as="geometry">
            <mxRectangle width="240" height="40" as="alternateBounds" />
          </mxGeometry>
        </mxCell>
        <mxCell id="bGasV0_nglml6GjyVDKy-228" value="DATETIME" style="shape=partialRectangle;html=1;whiteSpace=wrap;connectable=0;strokeColor=inherit;overflow=hidden;fillColor=none;top=0;left=0;bottom=0;right=0;pointerEvents=1;spacingLeft=5;align=left;fontColor=#0033ff;fontStyle=1" vertex="1" parent="bGasV0_nglml6GjyVDKy-225">
          <mxGeometry x="280" width="120" height="40" as="geometry">
            <mxRectangle width="120" height="40" as="alternateBounds" />
          </mxGeometry>
        </mxCell>
        <mxCell id="bGasV0_nglml6GjyVDKy-229" value="" style="shape=tableRow;horizontal=0;startSize=0;swimlaneHead=0;swimlaneBody=0;strokeColor=inherit;top=0;left=0;bottom=0;right=0;collapsible=0;dropTarget=0;fillColor=none;points=[[0,0.5],[1,0.5]];portConstraint=eastwest;" vertex="1" parent="bGasV0_nglml6GjyVDKy-204">
          <mxGeometry y="360" width="400" height="40" as="geometry" />
        </mxCell>
        <mxCell id="bGasV0_nglml6GjyVDKy-230" value="FK" style="shape=partialRectangle;html=1;whiteSpace=wrap;connectable=0;strokeColor=inherit;overflow=hidden;fillColor=none;top=0;left=0;bottom=0;right=0;pointerEvents=1;align=center;fontStyle=1" vertex="1" parent="bGasV0_nglml6GjyVDKy-229">
          <mxGeometry width="40" height="40" as="geometry">
            <mxRectangle width="40" height="40" as="alternateBounds" />
          </mxGeometry>
        </mxCell>
        <mxCell id="bGasV0_nglml6GjyVDKy-231" value="UpdatedBy" style="shape=partialRectangle;html=1;whiteSpace=wrap;connectable=0;strokeColor=inherit;overflow=hidden;fillColor=none;top=0;left=0;bottom=0;right=0;pointerEvents=1;align=left;spacingLeft=5;fontStyle=1" vertex="1" parent="bGasV0_nglml6GjyVDKy-229">
          <mxGeometry x="40" width="240" height="40" as="geometry">
            <mxRectangle width="240" height="40" as="alternateBounds" />
          </mxGeometry>
        </mxCell>
        <mxCell id="bGasV0_nglml6GjyVDKy-232" value="GUID" style="shape=partialRectangle;html=1;whiteSpace=wrap;connectable=0;strokeColor=inherit;overflow=hidden;fillColor=none;top=0;left=0;bottom=0;right=0;pointerEvents=1;spacingLeft=5;align=left;fontColor=#0033ff;fontStyle=1" vertex="1" parent="bGasV0_nglml6GjyVDKy-229">
          <mxGeometry x="280" width="120" height="40" as="geometry">
            <mxRectangle width="120" height="40" as="alternateBounds" />
          </mxGeometry>
        </mxCell>
        <mxCell id="bGasV0_nglml6GjyVDKy-233" value="" style="shape=tableRow;horizontal=0;startSize=0;swimlaneHead=0;swimlaneBody=0;strokeColor=inherit;top=0;left=0;bottom=0;right=0;collapsible=0;dropTarget=0;fillColor=none;points=[[0,0.5],[1,0.5]];portConstraint=eastwest;" vertex="1" parent="bGasV0_nglml6GjyVDKy-204">
          <mxGeometry y="400" width="400" height="40" as="geometry" />
        </mxCell>
        <mxCell id="bGasV0_nglml6GjyVDKy-234" value="FK" style="shape=partialRectangle;html=1;whiteSpace=wrap;connectable=0;strokeColor=inherit;overflow=hidden;fillColor=none;top=0;left=0;bottom=0;right=0;pointerEvents=1;align=center;fontStyle=1" vertex="1" parent="bGasV0_nglml6GjyVDKy-233">
          <mxGeometry width="40" height="40" as="geometry">
            <mxRectangle width="40" height="40" as="alternateBounds" />
          </mxGeometry>
        </mxCell>
        <mxCell id="bGasV0_nglml6GjyVDKy-235" value="StatusId" style="shape=partialRectangle;html=1;whiteSpace=wrap;connectable=0;strokeColor=inherit;overflow=hidden;fillColor=none;top=0;left=0;bottom=0;right=0;pointerEvents=1;align=left;spacingLeft=5;fontStyle=1" vertex="1" parent="bGasV0_nglml6GjyVDKy-233">
          <mxGeometry x="40" width="240" height="40" as="geometry">
            <mxRectangle width="240" height="40" as="alternateBounds" />
          </mxGeometry>
        </mxCell>
        <mxCell id="bGasV0_nglml6GjyVDKy-236" value="GUID" style="shape=partialRectangle;html=1;whiteSpace=wrap;connectable=0;strokeColor=inherit;overflow=hidden;fillColor=none;top=0;left=0;bottom=0;right=0;pointerEvents=1;spacingLeft=5;align=left;fontColor=#0033ff;fontStyle=1" vertex="1" parent="bGasV0_nglml6GjyVDKy-233">
          <mxGeometry x="280" width="120" height="40" as="geometry">
            <mxRectangle width="120" height="40" as="alternateBounds" />
          </mxGeometry>
        </mxCell>
        <mxCell id="bGasV0_nglml6GjyVDKy-241" value="" style="edgeStyle=entityRelationEdgeStyle;fontSize=12;html=1;endArrow=ERmandOne;startArrow=ERoneToMany;rounded=0;strokeColor=#3700CC;strokeWidth=3;startFill=0;" edge="1" parent="1" source="bGasV0_nglml6GjyVDKy-237" target="bGasV0_nglml6GjyVDKy-19">
          <mxGeometry width="100" height="100" relative="1" as="geometry">
            <mxPoint x="990" y="700" as="sourcePoint" />
            <mxPoint x="1770" y="130" as="targetPoint" />
          </mxGeometry>
        </mxCell>
        <mxCell id="bGasV0_nglml6GjyVDKy-242" value="" style="edgeStyle=entityRelationEdgeStyle;fontSize=12;html=1;endArrow=ERmandOne;startArrow=ERmandOne;rounded=0;strokeColor=#67AB9F;strokeWidth=3;" edge="1" parent="1" source="bGasV0_nglml6GjyVDKy-89" target="bGasV0_nglml6GjyVDKy-233">
          <mxGeometry width="100" height="100" relative="1" as="geometry">
            <mxPoint x="770" y="590" as="sourcePoint" />
            <mxPoint x="1030" y="780" as="targetPoint" />
          </mxGeometry>
        </mxCell>
        <mxCell id="bGasV0_nglml6GjyVDKy-243" value="" style="edgeStyle=entityRelationEdgeStyle;fontSize=12;html=1;endArrow=ERmandOne;startArrow=ERmandOne;rounded=0;strokeColor=#336600;strokeWidth=3;" edge="1" parent="1" source="bGasV0_nglml6GjyVDKy-122" target="bGasV0_nglml6GjyVDKy-221">
          <mxGeometry width="100" height="100" relative="1" as="geometry">
            <mxPoint x="210" y="710" as="sourcePoint" />
            <mxPoint x="370" y="550" as="targetPoint" />
          </mxGeometry>
        </mxCell>
        <mxCell id="bGasV0_nglml6GjyVDKy-244" value="" style="edgeStyle=entityRelationEdgeStyle;fontSize=12;html=1;endArrow=ERmandOne;startArrow=ERmandOne;rounded=0;strokeColor=#336600;strokeWidth=3;" edge="1" parent="1" source="bGasV0_nglml6GjyVDKy-122" target="bGasV0_nglml6GjyVDKy-229">
          <mxGeometry width="100" height="100" relative="1" as="geometry">
            <mxPoint x="210" y="710" as="sourcePoint" />
            <mxPoint x="370" y="990" as="targetPoint" />
          </mxGeometry>
        </mxCell>
        <mxCell id="bGasV0_nglml6GjyVDKy-245" value="core.tb_BUCKETS" style="shape=table;startSize=40;container=1;collapsible=0;childLayout=tableLayout;fillColor=#FF8000;fontColor=#ffffff;strokeColor=#FF8000;fontStyle=1;fontSize=20;" vertex="1" parent="1">
          <mxGeometry x="880" y="580" width="400" height="240" as="geometry" />
        </mxCell>
        <mxCell id="bGasV0_nglml6GjyVDKy-246" value="" style="shape=tableRow;horizontal=0;startSize=0;swimlaneHead=0;swimlaneBody=0;strokeColor=inherit;top=0;left=0;bottom=0;right=0;collapsible=0;dropTarget=0;fillColor=none;points=[[0,0.5],[1,0.5]];portConstraint=eastwest;" vertex="1" parent="bGasV0_nglml6GjyVDKy-245">
          <mxGeometry y="40" width="400" height="40" as="geometry" />
        </mxCell>
        <mxCell id="bGasV0_nglml6GjyVDKy-247" value="PK" style="shape=partialRectangle;html=1;whiteSpace=wrap;connectable=0;strokeColor=inherit;overflow=hidden;fillColor=none;top=0;left=0;bottom=0;right=0;pointerEvents=1;align=center;fontStyle=1" vertex="1" parent="bGasV0_nglml6GjyVDKy-246">
          <mxGeometry width="50" height="40" as="geometry">
            <mxRectangle width="50" height="40" as="alternateBounds" />
          </mxGeometry>
        </mxCell>
        <mxCell id="bGasV0_nglml6GjyVDKy-248" value="Id" style="shape=partialRectangle;html=1;whiteSpace=wrap;connectable=0;strokeColor=inherit;overflow=hidden;fillColor=none;top=0;left=0;bottom=0;right=0;pointerEvents=1;align=left;spacingLeft=5;fontStyle=1" vertex="1" parent="bGasV0_nglml6GjyVDKy-246">
          <mxGeometry x="50" width="217" height="40" as="geometry">
            <mxRectangle width="217" height="40" as="alternateBounds" />
          </mxGeometry>
        </mxCell>
        <mxCell id="bGasV0_nglml6GjyVDKy-249" value="GUID" style="shape=partialRectangle;html=1;whiteSpace=wrap;connectable=0;strokeColor=inherit;overflow=hidden;fillColor=none;top=0;left=0;bottom=0;right=0;pointerEvents=1;spacingLeft=5;align=left;fontColor=#0033ff;fontStyle=1" vertex="1" parent="bGasV0_nglml6GjyVDKy-246">
          <mxGeometry x="267" width="133" height="40" as="geometry">
            <mxRectangle width="133" height="40" as="alternateBounds" />
          </mxGeometry>
        </mxCell>
        <mxCell id="bGasV0_nglml6GjyVDKy-254" value="" style="shape=tableRow;horizontal=0;startSize=0;swimlaneHead=0;swimlaneBody=0;strokeColor=inherit;top=0;left=0;bottom=0;right=0;collapsible=0;dropTarget=0;fillColor=none;points=[[0,0.5],[1,0.5]];portConstraint=eastwest;" vertex="1" parent="bGasV0_nglml6GjyVDKy-245">
          <mxGeometry y="80" width="400" height="40" as="geometry" />
        </mxCell>
        <mxCell id="bGasV0_nglml6GjyVDKy-255" value="FK" style="shape=partialRectangle;html=1;whiteSpace=wrap;connectable=0;strokeColor=inherit;overflow=hidden;fillColor=none;top=0;left=0;bottom=0;right=0;pointerEvents=1;align=center;fontStyle=1" vertex="1" parent="bGasV0_nglml6GjyVDKy-254">
          <mxGeometry width="50" height="40" as="geometry">
            <mxRectangle width="50" height="40" as="alternateBounds" />
          </mxGeometry>
        </mxCell>
        <mxCell id="bGasV0_nglml6GjyVDKy-256" value="IdProject" style="shape=partialRectangle;html=1;whiteSpace=wrap;connectable=0;strokeColor=inherit;overflow=hidden;fillColor=none;top=0;left=0;bottom=0;right=0;pointerEvents=1;align=left;spacingLeft=5;fontStyle=1" vertex="1" parent="bGasV0_nglml6GjyVDKy-254">
          <mxGeometry x="50" width="217" height="40" as="geometry">
            <mxRectangle width="217" height="40" as="alternateBounds" />
          </mxGeometry>
        </mxCell>
        <mxCell id="bGasV0_nglml6GjyVDKy-257" value="GUID" style="shape=partialRectangle;html=1;whiteSpace=wrap;connectable=0;strokeColor=inherit;overflow=hidden;fillColor=none;top=0;left=0;bottom=0;right=0;pointerEvents=1;spacingLeft=5;align=left;fontColor=#0033ff;fontStyle=1" vertex="1" parent="bGasV0_nglml6GjyVDKy-254">
          <mxGeometry x="267" width="133" height="40" as="geometry">
            <mxRectangle width="133" height="40" as="alternateBounds" />
          </mxGeometry>
        </mxCell>
        <mxCell id="bGasV0_nglml6GjyVDKy-250" value="" style="shape=tableRow;horizontal=0;startSize=0;swimlaneHead=0;swimlaneBody=0;strokeColor=inherit;top=0;left=0;bottom=0;right=0;collapsible=0;dropTarget=0;fillColor=none;points=[[0,0.5],[1,0.5]];portConstraint=eastwest;" vertex="1" parent="bGasV0_nglml6GjyVDKy-245">
          <mxGeometry y="120" width="400" height="40" as="geometry" />
        </mxCell>
        <mxCell id="bGasV0_nglml6GjyVDKy-251" value="" style="shape=partialRectangle;html=1;whiteSpace=wrap;connectable=0;strokeColor=inherit;overflow=hidden;fillColor=none;top=0;left=0;bottom=0;right=0;pointerEvents=1;align=center;fontStyle=1" vertex="1" parent="bGasV0_nglml6GjyVDKy-250">
          <mxGeometry width="50" height="40" as="geometry">
            <mxRectangle width="50" height="40" as="alternateBounds" />
          </mxGeometry>
        </mxCell>
        <mxCell id="bGasV0_nglml6GjyVDKy-252" value="Name" style="shape=partialRectangle;html=1;whiteSpace=wrap;connectable=0;strokeColor=inherit;overflow=hidden;fillColor=none;top=0;left=0;bottom=0;right=0;pointerEvents=1;align=left;spacingLeft=5;fontStyle=1" vertex="1" parent="bGasV0_nglml6GjyVDKy-250">
          <mxGeometry x="50" width="217" height="40" as="geometry">
            <mxRectangle width="217" height="40" as="alternateBounds" />
          </mxGeometry>
        </mxCell>
        <mxCell id="bGasV0_nglml6GjyVDKy-253" value="NVARCHAR(30)" style="shape=partialRectangle;html=1;whiteSpace=wrap;connectable=0;strokeColor=inherit;overflow=hidden;fillColor=none;top=0;left=0;bottom=0;right=0;pointerEvents=1;spacingLeft=5;align=left;fontColor=#0033ff;fontStyle=1" vertex="1" parent="bGasV0_nglml6GjyVDKy-250">
          <mxGeometry x="267" width="133" height="40" as="geometry">
            <mxRectangle width="133" height="40" as="alternateBounds" />
          </mxGeometry>
        </mxCell>
        <mxCell id="bGasV0_nglml6GjyVDKy-264" value="" style="shape=tableRow;horizontal=0;startSize=0;swimlaneHead=0;swimlaneBody=0;strokeColor=inherit;top=0;left=0;bottom=0;right=0;collapsible=0;dropTarget=0;fillColor=none;points=[[0,0.5],[1,0.5]];portConstraint=eastwest;" vertex="1" parent="bGasV0_nglml6GjyVDKy-245">
          <mxGeometry y="160" width="400" height="40" as="geometry" />
        </mxCell>
        <mxCell id="bGasV0_nglml6GjyVDKy-265" value="" style="shape=partialRectangle;html=1;whiteSpace=wrap;connectable=0;strokeColor=inherit;overflow=hidden;fillColor=none;top=0;left=0;bottom=0;right=0;pointerEvents=1;align=center;fontStyle=1" vertex="1" parent="bGasV0_nglml6GjyVDKy-264">
          <mxGeometry width="50" height="40" as="geometry">
            <mxRectangle width="50" height="40" as="alternateBounds" />
          </mxGeometry>
        </mxCell>
        <mxCell id="bGasV0_nglml6GjyVDKy-266" value="CreatedAt" style="shape=partialRectangle;html=1;whiteSpace=wrap;connectable=0;strokeColor=inherit;overflow=hidden;fillColor=none;top=0;left=0;bottom=0;right=0;pointerEvents=1;align=left;spacingLeft=5;fontStyle=1" vertex="1" parent="bGasV0_nglml6GjyVDKy-264">
          <mxGeometry x="50" width="217" height="40" as="geometry">
            <mxRectangle width="217" height="40" as="alternateBounds" />
          </mxGeometry>
        </mxCell>
        <mxCell id="bGasV0_nglml6GjyVDKy-267" value="DATETIME" style="shape=partialRectangle;html=1;whiteSpace=wrap;connectable=0;strokeColor=inherit;overflow=hidden;fillColor=none;top=0;left=0;bottom=0;right=0;pointerEvents=1;spacingLeft=5;align=left;fontColor=#0033ff;fontStyle=1" vertex="1" parent="bGasV0_nglml6GjyVDKy-264">
          <mxGeometry x="267" width="133" height="40" as="geometry">
            <mxRectangle width="133" height="40" as="alternateBounds" />
          </mxGeometry>
        </mxCell>
        <mxCell id="bGasV0_nglml6GjyVDKy-268" value="" style="shape=tableRow;horizontal=0;startSize=0;swimlaneHead=0;swimlaneBody=0;strokeColor=inherit;top=0;left=0;bottom=0;right=0;collapsible=0;dropTarget=0;fillColor=none;points=[[0,0.5],[1,0.5]];portConstraint=eastwest;" vertex="1" parent="bGasV0_nglml6GjyVDKy-245">
          <mxGeometry y="200" width="400" height="40" as="geometry" />
        </mxCell>
        <mxCell id="bGasV0_nglml6GjyVDKy-269" value="FK" style="shape=partialRectangle;html=1;whiteSpace=wrap;connectable=0;strokeColor=inherit;overflow=hidden;fillColor=none;top=0;left=0;bottom=0;right=0;pointerEvents=1;align=center;fontStyle=1" vertex="1" parent="bGasV0_nglml6GjyVDKy-268">
          <mxGeometry width="50" height="40" as="geometry">
            <mxRectangle width="50" height="40" as="alternateBounds" />
          </mxGeometry>
        </mxCell>
        <mxCell id="bGasV0_nglml6GjyVDKy-270" value="CreatedBy" style="shape=partialRectangle;html=1;whiteSpace=wrap;connectable=0;strokeColor=inherit;overflow=hidden;fillColor=none;top=0;left=0;bottom=0;right=0;pointerEvents=1;align=left;spacingLeft=5;fontStyle=1" vertex="1" parent="bGasV0_nglml6GjyVDKy-268">
          <mxGeometry x="50" width="217" height="40" as="geometry">
            <mxRectangle width="217" height="40" as="alternateBounds" />
          </mxGeometry>
        </mxCell>
        <mxCell id="bGasV0_nglml6GjyVDKy-271" value="GUID" style="shape=partialRectangle;html=1;whiteSpace=wrap;connectable=0;strokeColor=inherit;overflow=hidden;fillColor=none;top=0;left=0;bottom=0;right=0;pointerEvents=1;spacingLeft=5;align=left;fontColor=#0033ff;fontStyle=1" vertex="1" parent="bGasV0_nglml6GjyVDKy-268">
          <mxGeometry x="267" width="133" height="40" as="geometry">
            <mxRectangle width="133" height="40" as="alternateBounds" />
          </mxGeometry>
        </mxCell>
        <mxCell id="bGasV0_nglml6GjyVDKy-258" value="" style="edgeStyle=entityRelationEdgeStyle;fontSize=12;html=1;endArrow=ERmandOne;startArrow=ERoneToMany;rounded=0;strokeColor=#3700CC;strokeWidth=3;startFill=0;exitX=0;exitY=0.5;exitDx=0;exitDy=0;" edge="1" parent="1" source="bGasV0_nglml6GjyVDKy-254" target="bGasV0_nglml6GjyVDKy-19">
          <mxGeometry width="100" height="100" relative="1" as="geometry">
            <mxPoint x="770" y="830" as="sourcePoint" />
            <mxPoint x="770" y="310" as="targetPoint" />
          </mxGeometry>
        </mxCell>
        <mxCell id="bGasV0_nglml6GjyVDKy-263" value="" style="edgeStyle=entityRelationEdgeStyle;fontSize=12;html=1;endArrow=ERmandOne;startArrow=ERoneToMany;rounded=0;strokeColor=#FF8000;strokeWidth=3;startFill=0;" edge="1" parent="1" source="bGasV0_nglml6GjyVDKy-259" target="bGasV0_nglml6GjyVDKy-246">
          <mxGeometry width="100" height="100" relative="1" as="geometry">
            <mxPoint x="890" y="690" as="sourcePoint" />
            <mxPoint x="770" y="310" as="targetPoint" />
          </mxGeometry>
        </mxCell>
        <mxCell id="bGasV0_nglml6GjyVDKy-272" value="" style="edgeStyle=entityRelationEdgeStyle;fontSize=12;html=1;endArrow=ERmandOne;startArrow=ERmandOne;rounded=0;strokeColor=#336600;strokeWidth=3;" edge="1" parent="1" source="bGasV0_nglml6GjyVDKy-122" target="bGasV0_nglml6GjyVDKy-268">
          <mxGeometry width="100" height="100" relative="1" as="geometry">
            <mxPoint x="210" y="710" as="sourcePoint" />
            <mxPoint x="370" y="550" as="targetPoint" />
          </mxGeometry>
        </mxCell>
        <mxCell id="bGasV0_nglml6GjyVDKy-273" value="" style="edgeStyle=entityRelationEdgeStyle;fontSize=12;html=1;endArrow=ERmandOne;startArrow=ERoneToMany;rounded=0;strokeColor=#336600;strokeWidth=3;entryX=0;entryY=0.5;entryDx=0;entryDy=0;startFill=0;" edge="1" parent="1" source="bGasV0_nglml6GjyVDKy-158" target="bGasV0_nglml6GjyVDKy-122">
          <mxGeometry width="100" height="100" relative="1" as="geometry">
            <mxPoint x="-420" y="390" as="sourcePoint" />
            <mxPoint x="-190" y="710" as="targetPoint" />
          </mxGeometry>
        </mxCell>
      </root>
    </mxGraphModel>
  </diagram>
</mxfile>
